<?xml version="1.0" encoding="UTF-8"?>
<svg version="1.1" xmlns="http://www.w3.org/2000/svg" width="512" height="512">
<path d="M0 0 C1.01790619 0.00215515 2.03581238 0.0043103 3.08456421 0.00653076 C17.69363523 0.05620146 32.02575853 0.30709809 46.375 3.3125 C47.34985352 3.51117676 48.32470703 3.70985352 49.32910156 3.91455078 C97.7109774 14.03517194 141.69928269 35.9516877 177.375 70.3125 C178.3640332 71.26068604 178.3640332 71.26068604 179.37304688 72.22802734 C188.86130305 81.37247479 197.6012044 90.66984009 205.375 101.3125 C206.23306152 102.46355017 207.09113451 103.61459177 207.94921875 104.765625 C213.98736829 112.95680614 219.34595521 121.47054105 224.375 130.3125 C224.73948242 130.94430176 225.10396484 131.57610352 225.47949219 132.22705078 C247.08534998 169.97532572 256.85198095 212.74189997 256.6875 255.9375 C256.68534485 256.95540619 256.6831897 257.97331238 256.68096924 259.02206421 C256.63129854 273.63113523 256.38040191 287.96325853 253.375 302.3125 C253.07698486 303.77478027 253.07698486 303.77478027 252.77294922 305.26660156 C242.65232806 353.6484774 220.7358123 397.63678269 186.375 433.3125 C185.74287598 433.97185547 185.11075195 434.63121094 184.45947266 435.31054688 C175.31502521 444.79880305 166.01765991 453.5387044 155.375 461.3125 C154.22394983 462.17056152 153.07290823 463.02863451 151.921875 463.88671875 C143.73224019 469.92427396 135.22961724 475.30707302 126.375 480.3125 C125.66778809 480.7146875 124.96057617 481.116875 124.23193359 481.53125 C101.09654164 494.5566741 75.92537591 503.30551461 49.9375 508.625 C49.21860596 508.77235596 48.49971191 508.91971191 47.7590332 509.0715332 C33.08339502 511.86090125 18.55831162 512.66142619 3.64770508 512.62817383 C0.70811513 512.6250221 -2.2304558 512.64854926 -5.16992188 512.67382812 C-18.54306192 512.71848737 -31.43916711 511.51301542 -44.625 509.3125 C-46.33055054 509.03031616 -46.33055054 509.03031616 -48.07055664 508.74243164 C-91.33802759 500.97044532 -132.38793216 480.98345309 -165.625 452.3125 C-166.37007813 451.67828125 -167.11515625 451.0440625 -167.8828125 450.390625 C-181.38779833 438.57948485 -194.05918743 425.82889772 -204.625 411.3125 C-205.48149066 410.16255169 -206.33826433 409.01281411 -207.1953125 407.86328125 C-213.23534209 399.67315742 -218.61867614 391.16870382 -223.625 382.3125 C-224.0271875 381.60528809 -224.429375 380.89807617 -224.84375 380.16943359 C-237.8691741 357.03404164 -246.61801461 331.86287591 -251.9375 305.875 C-252.08485596 305.15610596 -252.23221191 304.43721191 -252.3840332 303.6965332 C-255.35789088 288.05024391 -255.99800362 272.57681954 -255.9375 256.6875 C-255.93534485 255.66959381 -255.9331897 254.65168762 -255.93096924 253.60293579 C-255.88129854 238.99386477 -255.63040191 224.66174147 -252.625 210.3125 C-252.42632324 209.33764648 -252.22764648 208.36279297 -252.02294922 207.35839844 C-241.90232806 158.9765226 -219.9858123 114.98821731 -185.625 79.3125 C-184.99287598 78.65314453 -184.36075195 77.99378906 -183.70947266 77.31445312 C-174.56502521 67.82619695 -165.26765991 59.0862956 -154.625 51.3125 C-153.47394983 50.45443848 -152.32290823 49.59636549 -151.171875 48.73828125 C-142.98224019 42.70072604 -134.47961724 37.31792698 -125.625 32.3125 C-124.91778809 31.9103125 -124.21057617 31.508125 -123.48193359 31.09375 C-100.34654164 18.0683259 -75.17537591 9.31948539 -49.1875 4 C-48.46860596 3.85264404 -47.74971191 3.70528809 -47.0090332 3.5534668 C-31.36274391 0.57960912 -15.88931954 -0.06050362 0 0 Z " fill="#FECF3F" transform="translate(255.625,-0.3125)"/>
<path d="M0 0 C1.01790619 0.00215515 2.03581238 0.0043103 3.08456421 0.00653076 C17.69363523 0.05620146 32.02575853 0.30709809 46.375 3.3125 C47.34985352 3.51117676 48.32470703 3.70985352 49.32910156 3.91455078 C97.7109774 14.03517194 141.69928269 35.9516877 177.375 70.3125 C178.3640332 71.26068604 178.3640332 71.26068604 179.37304688 72.22802734 C188.86130305 81.37247479 197.6012044 90.66984009 205.375 101.3125 C206.23306152 102.46355017 207.09113451 103.61459177 207.94921875 104.765625 C213.98736829 112.95680614 219.34595521 121.47054105 224.375 130.3125 C224.73948242 130.94430176 225.10396484 131.57610352 225.47949219 132.22705078 C247.08534998 169.97532572 256.85198095 212.74189997 256.6875 255.9375 C256.68534485 256.95540619 256.6831897 257.97331238 256.68096924 259.02206421 C256.63129854 273.63113523 256.38040191 287.96325853 253.375 302.3125 C253.07698486 303.77478027 253.07698486 303.77478027 252.77294922 305.26660156 C242.65232806 353.6484774 220.7358123 397.63678269 186.375 433.3125 C185.74287598 433.97185547 185.11075195 434.63121094 184.45947266 435.31054688 C175.31502521 444.79880305 166.01765991 453.5387044 155.375 461.3125 C154.22394983 462.17056152 153.07290823 463.02863451 151.921875 463.88671875 C143.73224019 469.92427396 135.22961724 475.30707302 126.375 480.3125 C125.66778809 480.7146875 124.96057617 481.116875 124.23193359 481.53125 C101.09654164 494.5566741 75.92537591 503.30551461 49.9375 508.625 C49.21860596 508.77235596 48.49971191 508.91971191 47.7590332 509.0715332 C33.08339502 511.86090125 18.55831162 512.66142619 3.64770508 512.62817383 C0.70811513 512.6250221 -2.2304558 512.64854926 -5.16992188 512.67382812 C-18.54306192 512.71848737 -31.43916711 511.51301542 -44.625 509.3125 C-46.33055054 509.03031616 -46.33055054 509.03031616 -48.07055664 508.74243164 C-91.33802759 500.97044532 -132.38793216 480.98345309 -165.625 452.3125 C-166.37007813 451.67828125 -167.11515625 451.0440625 -167.8828125 450.390625 C-181.38779833 438.57948485 -194.05918743 425.82889772 -204.625 411.3125 C-205.48149066 410.16255169 -206.33826433 409.01281411 -207.1953125 407.86328125 C-213.23534209 399.67315742 -218.61867614 391.16870382 -223.625 382.3125 C-224.0271875 381.60528809 -224.429375 380.89807617 -224.84375 380.16943359 C-237.8691741 357.03404164 -246.61801461 331.86287591 -251.9375 305.875 C-252.08485596 305.15610596 -252.23221191 304.43721191 -252.3840332 303.6965332 C-255.35789088 288.05024391 -255.99800362 272.57681954 -255.9375 256.6875 C-255.93534485 255.66959381 -255.9331897 254.65168762 -255.93096924 253.60293579 C-255.88129854 238.99386477 -255.63040191 224.66174147 -252.625 210.3125 C-252.42632324 209.33764648 -252.22764648 208.36279297 -252.02294922 207.35839844 C-241.90232806 158.9765226 -219.9858123 114.98821731 -185.625 79.3125 C-184.99287598 78.65314453 -184.36075195 77.99378906 -183.70947266 77.31445312 C-174.56502521 67.82619695 -165.26765991 59.0862956 -154.625 51.3125 C-153.47394983 50.45443848 -152.32290823 49.59636549 -151.171875 48.73828125 C-142.98224019 42.70072604 -134.47961724 37.31792698 -125.625 32.3125 C-124.91778809 31.9103125 -124.21057617 31.508125 -123.48193359 31.09375 C-100.34654164 18.0683259 -75.17537591 9.31948539 -49.1875 4 C-48.46860596 3.85264404 -47.74971191 3.70528809 -47.0090332 3.5534668 C-31.36274391 0.57960912 -15.88931954 -0.06050362 0 0 Z M-78.9375 51.1875 C-79.62642334 51.56551758 -80.31534668 51.94353516 -81.02514648 52.33300781 C-93.06510678 59.17288213 -103.88061626 67.98461413 -114.5 76.8125 C-122.89315192 83.78695633 -131.95190717 89.65420925 -141.06933594 95.62792969 C-172.09260029 116.07696714 -186.4096358 136.63970778 -196.625 172.3125 C-197.47669982 175.27155182 -198.32982209 178.23017503 -199.1875 181.1875 C-199.37868408 181.84758057 -199.56986816 182.50766113 -199.7668457 183.18774414 C-202.854922 193.67900624 -206.57769494 203.99685337 -210.48828125 214.20703125 C-215.65428383 227.71758774 -219.89813618 240.60115506 -220.125 255.1875 C-220.14361084 255.91638428 -220.16222168 256.64526855 -220.18139648 257.39624023 C-220.00526393 273.39010184 -214.40539154 288.72576329 -208.6875 303.4375 C-207.46154264 306.62440581 -206.24432409 309.81449908 -205.03515625 313.0078125 C-204.7419902 313.78167297 -204.44882416 314.55553345 -204.14677429 315.35284424 C-200.75386954 324.44469186 -198.16765358 333.73765671 -195.58129883 343.08422852 C-186.00725843 377.66427119 -170.94218663 397.72674234 -140.75 417.25 C-130.62074762 423.80825732 -121.01297359 430.72971749 -111.625 438.3125 C-110.01053875 439.59944488 -108.39484239 440.88484349 -106.77734375 442.16796875 C-106.07697998 442.72355469 -105.37661621 443.27914063 -104.6550293 443.8515625 C-80.8584909 462.59782632 -60.52329814 469.80282847 -30.4765625 469.7109375 C-28.13210968 469.71296264 -25.78765747 469.71587773 -23.44320679 469.71963501 C-18.54638632 469.72403936 -13.64973085 469.71768949 -8.75292969 469.70361328 C-2.5140242 469.68654183 3.72449341 469.69636209 9.96338463 469.71433067 C14.8004746 469.72523591 19.63747454 469.72169108 24.47456741 469.7139473 C26.77319003 469.71196289 29.07182113 469.71434182 31.37043381 469.72138596 C61.78763108 469.79415212 83.30377851 461.92958587 106.984375 442.33984375 C119.62951538 431.87962625 132.9235571 422.54058199 146.62792969 413.52075195 C154.25744378 408.49704759 161.54412302 403.40739023 168.375 397.3125 C169.09945313 396.67054688 169.82390625 396.02859375 170.5703125 395.3671875 C186.15511591 380.73050901 192.48011908 358.75909923 197.75 338.6875 C201.16489175 325.68881991 205.34646109 313.1229746 210.1953125 300.59375 C224.84915137 262.51504635 219.80407881 235.86324696 205.52197266 198.36083984 C201.7298093 188.28230607 198.51931938 178.12345404 195.875 167.6875 C191.4900842 150.42738838 185.35185514 133.78646204 173.375 120.3125 C172.55515625 119.35150391 172.55515625 119.35150391 171.71875 118.37109375 C161.71295041 107.47841647 147.96614141 99.64674076 135.70996094 91.54956055 C127.28842891 85.96692364 119.31378019 79.92348278 111.50805664 73.51220703 C85.24864927 51.95602332 63.44707605 42.46416237 29.23828125 42.68359375 C26.85995882 42.68276249 24.48163646 42.68029347 22.10331726 42.67628479 C17.15227686 42.67344743 12.20169401 42.68792836 7.25073242 42.71557617 C0.9469557 42.74971068 -5.35600731 42.74360162 -11.65982342 42.7249136 C-16.55960215 42.71428148 -21.45919572 42.72333672 -26.35895729 42.73829842 C-28.68186707 42.74343138 -31.00479658 42.74305881 -33.32770348 42.73675346 C-49.22570623 42.70977758 -64.72303381 43.13004113 -78.9375 51.1875 Z " fill="#DF8327" transform="translate(255.625,-0.3125)"/>
<path d="M0 0 C0.88365234 0.00451172 1.76730469 0.00902344 2.67773438 0.01367188 C4.84768559 0.02540134 7.01760172 0.04333505 9.1875 0.0625 C7.66510527 4.94269994 5.62845658 9.20962681 3.2109375 13.6953125 C1.92293855 16.244599 1.92293855 16.244599 2.1875 20.0625 C5.98303971 22.39054551 5.98303971 22.39054551 10.25683594 22.87719727 C12.74062314 21.82909434 13.18797783 20.87815526 14.328125 18.46484375 C14.67617188 17.74619141 15.02421875 17.02753906 15.3828125 16.28710938 C15.73085938 15.53236328 16.07890625 14.77761719 16.4375 14 C16.80101562 13.24138672 17.16453125 12.48277344 17.5390625 11.70117188 C18.43458794 9.82763839 19.31272601 7.94581197 20.1875 6.0625 C31.54265977 9.20009016 38.66839229 15.24343074 45.1875 25.0625 C52.9124509 39.29896924 55.84783031 53.03259392 51.2890625 68.98828125 C45.83420822 84.21158026 37.59745132 94.01571299 24.1875 103.0625 C25.04472656 103.8359375 25.90195312 104.609375 26.78515625 105.40625 C32.4748703 110.57712998 38.03847869 115.67015243 42.91796875 121.63671875 C44.15074247 123.19853861 44.15074247 123.19853861 46.1875 124.0625 C46.58839844 123.49402344 46.98929688 122.92554688 47.40234375 122.33984375 C51.43188139 116.86661689 55.8927245 110.98507434 62.1875 108.0625 C64.52083333 108.39583333 66.85416667 108.72916667 69.1875 109.0625 C72.80122821 108.08989041 72.80122821 108.08989041 76.3125 106.5625 C83.72380173 103.5136494 83.72380173 103.5136494 88.1875 105.0625 C89.39770508 106.98022461 89.39770508 106.98022461 90.20703125 109.46484375 C90.50673828 110.35494141 90.80644531 111.24503906 91.11523438 112.16210938 C91.40720703 113.09861328 91.69917969 114.03511719 92 115 C92.31130859 115.93263672 92.62261719 116.86527344 92.94335938 117.82617188 C95.1875 124.64737294 95.1875 124.64737294 95.1875 127.0625 C99.1475 126.0725 103.1075 125.0825 107.1875 124.0625 C108.23578929 119.05140831 108.23578929 119.05140831 106.97265625 114.63671875 C106.69873047 113.84072266 106.42480469 113.04472656 106.14257812 112.22460938 C105.70075195 110.99967773 105.70075195 110.99967773 105.25 109.75 C104.81397461 108.49606445 104.81397461 108.49606445 104.36914062 107.21679688 C103.65274446 105.16156197 102.92156239 103.11149155 102.1875 101.0625 C117.34251243 103.86898378 128.13462576 111.67671911 137.13671875 123.9921875 C139.71691642 127.85511201 141.6426973 131.69222914 143.1875 136.0625 C143.71730469 137.33480469 143.71730469 137.33480469 144.2578125 138.6328125 C147.7542832 151.53155734 146.40838743 167.2755554 140.1875 179.0625 C136.84375262 184.69888511 133.07157788 189.66682991 128.1875 194.0625 C127.49140625 194.76439453 127.49140625 194.76439453 126.78125 195.48046875 C116.4218087 205.35748508 102.67711948 208.55154516 88.8125 208.3125 C73.85494525 207.2809445 61.92429168 201.45228511 51.1875 191.0625 C51.1875 190.4025 51.1875 189.7425 51.1875 189.0625 C22.4069366 195.60802242 -1.37409051 209.54061152 -25.98046875 225.39379883 C-44.56662809 237.36299503 -60.38878946 246.46876511 -83.375 242 C-102.79904905 236.88214394 -119.91008091 223.60683725 -130.40234375 206.640625 C-133.81221285 200.4065153 -134.68729985 195.13379877 -133.8125 188.0625 C-131.9375 184.6875 -131.9375 184.6875 -129.8125 182.0625 C-128.16230822 178.59175543 -127.5569846 175.8300925 -127.546875 172 C-127.54300781 171.04399902 -127.53914062 170.08799805 -127.53515625 169.10302734 C-127.54417969 168.09965332 -127.55320313 167.0962793 -127.5625 166.0625 C-127.56636719 165.03463379 -127.57023438 164.00676758 -127.57421875 162.94775391 C-127.64921244 156.34310145 -128.09522711 150.07367505 -129.375 143.5859375 C-129.82752119 140.97585992 -130.06268178 138.70281131 -129.8125 136.0625 C-127.3125 133.75 -127.3125 133.75 -124.8125 132.0625 C-125.34404759 127.54434545 -126.99090391 124.60964937 -129.8125 121.0625 C-131.93369128 120.11018403 -131.93369128 120.11018403 -133.8125 120.0625 C-136.94816731 100.57471641 -136.94816731 100.57471641 -133.82421875 92.51171875 C-132.29787053 90.57261157 -130.89057839 89.39097095 -128.8125 88.0625 C-128.09707031 87.59972656 -127.38164062 87.13695312 -126.64453125 86.66015625 C-105.1141313 74.54272071 -74.75814258 77.55918028 -50.8125 77.0625 C-51.09254883 76.26295898 -51.37259766 75.46341797 -51.66113281 74.63964844 C-52.02561523 73.5777832 -52.39009766 72.51591797 -52.765625 71.421875 C-53.12817383 70.37483398 -53.49072266 69.32779297 -53.86425781 68.24902344 C-55.16416568 63.88074396 -55.61170488 59.60046975 -55.8125 55.0625 C-56.39257812 54.92714844 -56.97265625 54.79179687 -57.5703125 54.65234375 C-63.76999468 52.94385048 -67.33887382 50.52105543 -70.8125 45.0625 C-72.75045159 39.24864524 -72.83305692 33.14141224 -70.125 27.625 C-66.55672508 23.67096563 -63.06824395 20.37643599 -57.8125 19.0625 C-53.36474653 19.20623351 -49.10816728 19.92283317 -44.8125 21.0625 C-43.94625 19.8559375 -43.94625 19.8559375 -43.0625 18.625 C-31.9648374 5.46990557 -16.72696848 -0.16215555 0 0 Z " fill="#FBBE12" transform="translate(263.8125,200.9375)"/>
<path d="M0 0 C1.01790619 0.00215515 2.03581238 0.0043103 3.08456421 0.00653076 C17.69363523 0.05620146 32.02575853 0.30709809 46.375 3.3125 C47.34985352 3.51117676 48.32470703 3.70985352 49.32910156 3.91455078 C97.7109774 14.03517194 141.69928269 35.9516877 177.375 70.3125 C178.3640332 71.26068604 178.3640332 71.26068604 179.37304688 72.22802734 C188.86130305 81.37247479 197.6012044 90.66984009 205.375 101.3125 C206.23306152 102.46355017 207.09113451 103.61459177 207.94921875 104.765625 C213.98736829 112.95680614 219.34595521 121.47054105 224.375 130.3125 C224.73948242 130.94430176 225.10396484 131.57610352 225.47949219 132.22705078 C247.08534998 169.97532572 256.85198095 212.74189997 256.6875 255.9375 C256.68534485 256.95540619 256.6831897 257.97331238 256.68096924 259.02206421 C256.63129854 273.63113523 256.38040191 287.96325853 253.375 302.3125 C253.07698486 303.77478027 253.07698486 303.77478027 252.77294922 305.26660156 C242.65232806 353.6484774 220.7358123 397.63678269 186.375 433.3125 C185.74287598 433.97185547 185.11075195 434.63121094 184.45947266 435.31054688 C175.31502521 444.79880305 166.01765991 453.5387044 155.375 461.3125 C154.22394983 462.17056152 153.07290823 463.02863451 151.921875 463.88671875 C143.73224019 469.92427396 135.22961724 475.30707302 126.375 480.3125 C125.66778809 480.7146875 124.96057617 481.116875 124.23193359 481.53125 C101.09654164 494.5566741 75.92537591 503.30551461 49.9375 508.625 C49.21860596 508.77235596 48.49971191 508.91971191 47.7590332 509.0715332 C33.08339502 511.86090125 18.55831162 512.66142619 3.64770508 512.62817383 C0.70811513 512.6250221 -2.2304558 512.64854926 -5.16992188 512.67382812 C-18.54306192 512.71848737 -31.43916711 511.51301542 -44.625 509.3125 C-46.33055054 509.03031616 -46.33055054 509.03031616 -48.07055664 508.74243164 C-91.33802759 500.97044532 -132.38793216 480.98345309 -165.625 452.3125 C-166.37007813 451.67828125 -167.11515625 451.0440625 -167.8828125 450.390625 C-181.38779833 438.57948485 -194.05918743 425.82889772 -204.625 411.3125 C-205.48149066 410.16255169 -206.33826433 409.01281411 -207.1953125 407.86328125 C-213.23534209 399.67315742 -218.61867614 391.16870382 -223.625 382.3125 C-224.0271875 381.60528809 -224.429375 380.89807617 -224.84375 380.16943359 C-237.8691741 357.03404164 -246.61801461 331.86287591 -251.9375 305.875 C-252.08485596 305.15610596 -252.23221191 304.43721191 -252.3840332 303.6965332 C-255.35789088 288.05024391 -255.99800362 272.57681954 -255.9375 256.6875 C-255.93534485 255.66959381 -255.9331897 254.65168762 -255.93096924 253.60293579 C-255.88129854 238.99386477 -255.63040191 224.66174147 -252.625 210.3125 C-252.42632324 209.33764648 -252.22764648 208.36279297 -252.02294922 207.35839844 C-241.90232806 158.9765226 -219.9858123 114.98821731 -185.625 79.3125 C-184.99287598 78.65314453 -184.36075195 77.99378906 -183.70947266 77.31445312 C-174.56502521 67.82619695 -165.26765991 59.0862956 -154.625 51.3125 C-153.47394983 50.45443848 -152.32290823 49.59636549 -151.171875 48.73828125 C-142.98224019 42.70072604 -134.47961724 37.31792698 -125.625 32.3125 C-124.91778809 31.9103125 -124.21057617 31.508125 -123.48193359 31.09375 C-100.34654164 18.0683259 -75.17537591 9.31948539 -49.1875 4 C-48.46860596 3.85264404 -47.74971191 3.70528809 -47.0090332 3.5534668 C-31.36274391 0.57960912 -15.88931954 -0.06050362 0 0 Z M-116.625 47.3125 C-130.10395081 58.29466382 -143.86934027 68.77813847 -158.57617188 78.07543945 C-193.48754963 100.21867862 -209.25562257 125.77626714 -219.91796875 165.0703125 C-223.38164634 177.69949004 -227.62489957 189.95235564 -232.0859375 202.26171875 C-234.51055858 208.9612326 -236.85081188 215.68550659 -239.125 222.4375 C-239.45097168 223.38987549 -239.77694336 224.34225098 -240.11279297 225.32348633 C-243.45020966 235.30468653 -245.00225068 244.59475701 -245.0625 255.125 C-245.11180664 256.58196289 -245.11180664 256.58196289 -245.16210938 258.06835938 C-245.27816304 274.68513345 -239.46661689 290.72153721 -233.52301025 306.01989746 C-227.59322542 321.33100357 -222.58767585 336.73052631 -218.25 352.5625 C-210.75716545 380.24498009 -210.75716545 380.24498009 -195.625 404.3125 C-194.99722656 405.11042969 -194.36945313 405.90835937 -193.72265625 406.73046875 C-183.19741974 419.43752012 -168.34901678 428.41339396 -154.625 437.3125 C-144.34570016 444.03066648 -134.47909984 451.11511266 -124.99902344 458.91845703 C-94.59927669 483.91990972 -69.706558 494.82785757 -30.0625 494.7109375 C-27.6164542 494.71296404 -25.17040899 494.71588027 -22.72436523 494.71963501 C-17.62445259 494.72403106 -12.52469872 494.71771552 -7.42480469 494.70361328 C-0.93287003 494.68652335 5.55869235 494.6963792 12.0506134 494.71433067 C17.09365575 494.72524236 22.13661184 494.72168849 27.17965698 494.7139473 C29.57152349 494.71196564 31.9633982 494.71433178 34.35525513 494.72138596 C72.81085586 494.80994968 96.07769011 482.7775358 125.39453125 459.0625 C134.74968904 451.50091067 144.4040619 444.60279054 154.43359375 437.9609375 C190.57703528 414.01849656 209.31952187 391.20904531 220.28515625 349.05859375 C222.38600995 341.06833669 224.92038646 333.26276292 227.5625 325.4375 C228.04507507 323.99508705 228.5274945 322.55262202 229.00976562 321.11010742 C231.63262105 313.29599998 234.35825461 305.52884838 237.20849609 297.79418945 C251.01016601 260.29743827 244.14462273 230.81679886 229.92431641 194.61987305 C225.35316765 182.91377843 222.04147153 170.93669116 218.77587891 158.8112793 C208.36090238 120.31093341 190.41333761 98.21248952 157.27392578 76.56152344 C145.25712198 68.65743907 133.62175472 60.32241319 122.5390625 51.1484375 C99.24816077 31.87839441 76.51081536 18.18636942 45.45532227 18.15136719 C44.38906113 18.14640228 43.32279999 18.14143738 42.22422791 18.13632202 C38.71328065 18.12177603 35.20237863 18.11490951 31.69140625 18.109375 C29.88076848 18.10513393 29.88076848 18.10513393 28.03355217 18.10080719 C21.64028583 18.08584182 15.24704188 18.07659676 8.85375977 18.07226562 C2.29098036 18.06679808 -4.27158979 18.0427985 -10.83430386 18.01429367 C-15.91594515 17.99554753 -20.99753735 17.99045526 -26.07921028 17.98892975 C-28.49620769 17.98592752 -30.91320475 17.97798258 -33.33016777 17.96474457 C-67.07409046 17.79317887 -90.67215777 26.03720491 -116.625 47.3125 Z " fill="#CE7320" transform="translate(255.625,-0.3125)"/>
<path d="M0 0 C2.37971167 -0.00711628 4.75942165 -0.01481738 7.13912964 -0.02307129 C12.11330946 -0.03646787 17.08733071 -0.03810734 22.06152344 -0.03222656 C28.38540372 -0.02634549 34.70851232 -0.05688013 41.03224373 -0.09734344 C45.94499698 -0.12340169 50.85756911 -0.12608132 55.77038193 -0.12245178 C58.09921069 -0.12412715 60.42804929 -0.13361398 62.75680923 -0.15159607 C90.78188016 -0.34416079 111.95187581 6.50005617 133.5546875 24.46875 C147.74548291 36.2427724 162.39806416 47.06608144 178.05078125 56.83984375 C207.60997181 76.06945757 218.83192375 98.90557931 228.19042969 131.69628906 C232.14149266 145.53455309 236.65553526 159.14887842 241.92944336 172.54370117 C255.19785086 206.58906177 249.83913052 232.96246555 237.36450195 266.24023438 C232.78417296 278.49164794 229.10301705 290.86459361 225.6171875 303.46875 C216.30956098 335.84149085 201.38107034 355.19838927 173.0546875 373.53125 C161.43127804 381.09026465 150.28265062 389.09419765 139.6171875 397.96875 C119.14476592 414.73535772 99.31153623 426.56900935 72.19165039 426.64575195 C71.17269684 426.65232315 70.15374329 426.65889435 69.10391235 426.66566467 C65.74505526 426.68530813 62.38624277 426.69704269 59.02734375 426.70703125 C57.87324949 426.71110678 56.71915524 426.7151823 55.53008842 426.71938133 C49.41678932 426.74020779 43.3035124 426.75452217 37.19018555 426.76391602 C30.91306505 426.77495017 24.63630197 426.80932581 18.35930729 426.84908772 C13.50074153 426.8753841 8.64225911 426.88361956 3.78362846 426.88719749 C1.47185297 426.89203281 -0.83991958 426.90355814 -3.15162468 426.92223549 C-19.08570587 427.04293467 -34.50484819 426.67303149 -48.7578125 418.59375 C-49.44673584 418.21573242 -50.13565918 417.83771484 -50.84545898 417.44824219 C-61.23375729 411.54667333 -70.90003459 404.19825384 -80.0078125 396.48828125 C-90.80759943 387.34953197 -102.41350311 379.57374534 -114.20141602 371.77758789 C-143.59547183 352.27227372 -157.75878423 330.56452319 -166.6328125 296.34375 C-170.95859244 279.72741605 -176.81955849 263.67657022 -183.10546875 247.7109375 C-195.17066975 216.38238571 -187.38191842 189.62578756 -176.09765625 159.56640625 C-171.82497197 148.1820797 -167.98614276 136.82132153 -165.0078125 125.03125 C-156.21370151 90.53182145 -138.19415861 70.6991041 -108.90234375 51.484375 C-100.05062655 45.66755924 -91.56693609 39.63328253 -83.32470703 32.98291016 C-56.46050405 11.33939406 -34.87804108 -0.01274739 0 0 Z M-19.4453125 10.46875 C-20.16138672 10.77458008 -20.87746094 11.08041016 -21.61523438 11.39550781 C-31.97626783 15.87583494 -41.72732399 21.26741957 -51.4675293 26.95092773 C-61.73475487 32.89054367 -72.45144352 37.81505033 -83.23144531 42.7421875 C-98.63518935 49.77736525 -98.63518935 49.77736525 -112.4453125 59.46875 C-113.20457031 60.0565625 -113.96382812 60.644375 -114.74609375 61.25 C-131.49236552 74.90153761 -139.11520131 96.73043225 -147.91796875 115.83203125 C-148.63395742 117.3782807 -149.35133399 118.9238885 -150.0703125 120.46875 C-150.41312256 121.20536865 -150.75593262 121.9419873 -151.10913086 122.70092773 C-154.40807501 129.64619386 -158.25900236 136.24862393 -162.12524414 142.88964844 C-180.33936206 174.34585079 -179.28872281 200.99526776 -171.69140625 235.93603516 C-169.3605654 247.00009666 -168.03356863 258.11658141 -166.79394531 269.34765625 C-163.13323685 302.1784311 -149.66771766 324.28063844 -124.60546875 345.8046875 C-119.4541047 350.25725235 -114.68496766 355.08352887 -109.8828125 359.90625 C-108.97595703 360.80923828 -108.06910156 361.71222656 -107.13476562 362.64257812 C-102.58695659 367.19698297 -98.18044504 371.80689707 -93.9855957 376.68823242 C-72.62281104 401.38292073 -47.53891145 408.98934121 -15.93041992 412.13232422 C-1.42557628 413.58566155 13.05424296 416.20385905 27.23828125 419.5625 C54.00541001 425.60324756 77.57854065 419.35957852 101.1171875 406.28125 C103.23270146 405.1230192 105.34859106 403.96547424 107.46484375 402.80859375 C108.49883301 402.24124512 109.53282227 401.67389648 110.59814453 401.08935547 C121.83199699 394.93160876 133.11435832 389.15495068 144.8046875 383.90625 C178.11620932 368.85717522 192.60816145 347.25476188 207.18041992 314.84667969 C213.06210452 301.92388609 219.97237237 289.5319433 226.98046875 277.19140625 C231.81712472 268.57322467 235.05027251 259.99197611 237.5546875 250.46875 C237.75835937 249.69660156 237.96203125 248.92445313 238.171875 248.12890625 C240.20343106 234.01166468 238.43693687 219.24774835 235.484375 205.42578125 C232.31829584 190.47023992 230.13461863 175.56152034 228.3425293 160.38696289 C225.17897385 133.87048863 218.50733556 113.94101372 199.5546875 94.46875 C198.68199219 93.56769531 197.80929687 92.66664063 196.91015625 91.73828125 C193.35200627 88.12547459 189.76117043 84.63155113 185.9140625 81.328125 C180.70459839 76.80009073 175.86038579 71.9202971 170.9921875 67.03125 C170.08533203 66.12826172 169.17847656 65.22527344 168.24414062 64.29492188 C163.69633159 59.74051703 159.28982004 55.13060293 155.0949707 50.24926758 C144.59577876 38.11254118 132.72747229 28.21093651 117.5546875 22.46875 C116.92208008 22.22793701 116.28947266 21.98712402 115.63769531 21.73901367 C109.45554512 19.51812683 103.29287049 18.45763683 96.8046875 17.53125 C95.67635498 17.36286621 94.54802246 17.19448242 93.38549805 17.02099609 C87.42884715 16.14110606 81.46626368 15.31776279 75.49609375 14.53515625 C73.11974042 14.22174247 70.74343873 13.90793692 68.3671875 13.59375 C67.16827881 13.43688721 65.96937012 13.28002441 64.73413086 13.1184082 C58.35289261 12.24914391 52.04250583 11.21829206 45.7421875 9.8828125 C45.09211731 9.74507919 44.44204712 9.60734589 43.77227783 9.46543884 C43.12200623 9.32755447 42.47173462 9.1896701 41.80175781 9.04760742 C21.26160821 4.69993182 0.30532517 1.75523338 -19.4453125 10.46875 Z " fill="#ED2026" transform="translate(225.4453125,42.53125)"/>
<path d="M0 0 C0.73992187 -0.00172211 1.47984375 -0.00344421 2.2421875 -0.00521851 C16.46079505 -0.00146304 30.61928063 1.15478625 44.5 4.375 C45.84179321 4.68594604 45.84179321 4.68594604 47.21069336 5.00317383 C80.57814093 13.12734842 111.42391073 26.81162646 138.3125 48.375 C139.30894531 49.16777344 140.30539062 49.96054688 141.33203125 50.77734375 C155.58913983 62.35514505 168.54001968 75.49365747 179.3125 90.375 C180.45912109 91.93927734 180.45912109 91.93927734 181.62890625 93.53515625 C201.57052546 121.5227853 215.87728978 153.9348322 220.9375 188.0625 C221.05867188 188.83916016 221.17984375 189.61582031 221.3046875 190.41601562 C221.65971518 192.73334303 221.98948698 195.05301504 222.3125 197.375 C222.41183838 198.02484863 222.51117676 198.67469727 222.61352539 199.34423828 C223.60748724 206.69014042 223.49856546 214.10255103 223.49780273 221.50097656 C223.49996945 223.84198757 223.51811956 226.18251069 223.53710938 228.5234375 C223.72538977 277.23128576 205.69456449 325.48988654 175.3125 363.375 C174.51972656 364.37144531 173.72695313 365.36789062 172.91015625 366.39453125 C161.33235495 380.65163983 148.19384253 393.60251968 133.3125 404.375 C132.26964844 405.13941406 131.22679687 405.90382813 130.15234375 406.69140625 C104.44654307 425.00718741 75.31938577 438.18744977 44.3125 444.375 C43.43464844 444.57480469 42.55679687 444.77460938 41.65234375 444.98046875 C27.80214021 448.05572263 13.69895607 448.75314801 -0.4375 448.6875 C-1.21820862 448.68634186 -1.99891724 448.68518372 -2.80328369 448.68399048 C-15.31485137 448.64744428 -27.39449357 447.83243108 -39.6875 445.375 C-41.48574219 445.05015625 -41.48574219 445.05015625 -43.3203125 444.71875 C-46.8091381 444.03879327 -50.23951712 443.23882586 -53.6875 442.375 C-54.42838867 442.19130859 -55.16927734 442.00761719 -55.93261719 441.81835938 C-105.22020946 429.36301115 -150.75386778 399.72598146 -180.6875 358.375 C-181.83412109 356.81072266 -181.83412109 356.81072266 -183.00390625 355.21484375 C-201.3238689 329.50317442 -214.48562766 300.38436168 -220.6875 269.375 C-220.88730469 268.52035156 -221.08710938 267.66570312 -221.29296875 266.78515625 C-233.25740495 214.15962861 -221.14702371 154.3366485 -193.16455078 108.75244141 C-188.05999286 100.66253467 -182.67451067 92.84054201 -176.6875 85.375 C-175.89472656 84.37855469 -175.10195312 83.38210937 -174.28515625 82.35546875 C-162.69402342 68.0819435 -149.54169341 55.21004133 -134.6875 44.375 C-133.81867188 43.73433594 -132.94984375 43.09367187 -132.0546875 42.43359375 C-93.33224473 14.60572893 -47.62991595 -0.02807779 0 0 Z M-80 19.25 C-80.68892334 19.62801758 -81.37784668 20.00603516 -82.08764648 20.39550781 C-94.12760678 27.23538213 -104.94311626 36.04711413 -115.5625 44.875 C-123.95565192 51.84945633 -133.01440717 57.71670925 -142.13183594 63.69042969 C-173.15510029 84.13946714 -187.4721358 104.70220778 -197.6875 140.375 C-198.53919982 143.33405182 -199.39232209 146.29267503 -200.25 149.25 C-200.44118408 149.91008057 -200.63236816 150.57016113 -200.8293457 151.25024414 C-203.917422 161.74150624 -207.64019494 172.05935337 -211.55078125 182.26953125 C-216.71678383 195.78008774 -220.96063618 208.66365506 -221.1875 223.25 C-221.20611084 223.97888428 -221.22472168 224.70776855 -221.24389648 225.45874023 C-221.06776393 241.45260184 -215.46789154 256.78826329 -209.75 271.5 C-208.52404264 274.68690581 -207.30682409 277.87699908 -206.09765625 281.0703125 C-205.8044902 281.84417297 -205.51132416 282.61803345 -205.20927429 283.41534424 C-201.81636954 292.50719186 -199.23015358 301.80015671 -196.64379883 311.14672852 C-187.06975843 345.72677119 -172.00468663 365.78924234 -141.8125 385.3125 C-131.68324762 391.87075732 -122.07547359 398.79221749 -112.6875 406.375 C-111.07303875 407.66194488 -109.45734239 408.94734349 -107.83984375 410.23046875 C-107.13947998 410.78605469 -106.43911621 411.34164063 -105.7175293 411.9140625 C-81.9209909 430.66032632 -61.58579814 437.86532847 -31.5390625 437.7734375 C-29.19460968 437.77546264 -26.85015747 437.77837773 -24.50570679 437.78213501 C-19.60888632 437.78653936 -14.71223085 437.78018949 -9.81542969 437.76611328 C-3.5765242 437.74904183 2.66199341 437.75886209 8.90088463 437.77683067 C13.7379746 437.78773591 18.57497454 437.78419108 23.41206741 437.7764473 C25.71069003 437.77446289 28.00932113 437.77684182 30.30793381 437.78388596 C60.72513108 437.85665212 82.24127851 429.99208587 105.921875 410.40234375 C118.56701538 399.94212625 131.8610571 390.60308199 145.56542969 381.58325195 C153.19494378 376.55954759 160.48162302 371.46989023 167.3125 365.375 C168.03695313 364.73304688 168.76140625 364.09109375 169.5078125 363.4296875 C185.09261591 348.79300901 191.41761908 326.82159923 196.6875 306.75 C200.10239175 293.75131991 204.28396109 281.1854746 209.1328125 268.65625 C223.78665137 230.57754635 218.74157881 203.92574696 204.45947266 166.42333984 C200.6673093 156.34480607 197.45681938 146.18595404 194.8125 135.75 C190.4275842 118.48988838 184.28935514 101.84896204 172.3125 88.375 C171.49265625 87.41400391 171.49265625 87.41400391 170.65625 86.43359375 C160.65045041 75.54091647 146.90364141 67.70924076 134.64746094 59.61206055 C126.22592891 54.02942364 118.25128019 47.98598278 110.44555664 41.57470703 C84.18614927 20.01852332 62.38457605 10.52666237 28.17578125 10.74609375 C25.79745882 10.74526249 23.41913646 10.74279347 21.04081726 10.73878479 C16.08977686 10.73594743 11.13919401 10.75042836 6.18823242 10.77807617 C-0.1155443 10.81221068 -6.41850731 10.80610162 -12.72232342 10.7874136 C-17.62210215 10.77678148 -22.52169572 10.78583672 -27.42145729 10.80079842 C-29.74436707 10.80593138 -32.06729658 10.80555881 -34.39020348 10.79925346 C-50.28820623 10.77227758 -65.78553381 11.19254113 -80 19.25 Z " fill="#FBDEA7" transform="translate(256.6875,31.625)"/>
<path d="M0 0 C10.68004154 7.41946811 17.93071862 19.13240815 21.3828125 31.55078125 C22.2177685 36.2170227 22.44369994 40.88129391 22.32226562 45.62060547 C22.27845225 47.83085389 22.27845225 47.83085389 23 51 C25.81577033 53.37208925 25.81577033 53.37208925 29 55 C33.65118059 60.27971851 34.30126697 63.32294991 34.2109375 70.2421875 C33.8149054 75.41994056 31.79730208 78.47805315 28 81.8125 C23.86743897 84.82582575 21.06003708 85.15661287 16.0625 85.1875 C14.50208984 85.20876953 14.50208984 85.20876953 12.91015625 85.23046875 C10.04953387 85.00392282 8.42329849 84.47733619 6 83 C5.13375 83.845625 4.2675 84.69125 3.375 85.5625 C-9.20136048 96.34589666 -23.71178573 98.95361505 -39.69677734 98.19091797 C-52.35307191 97.1418166 -64.94788667 89.88116995 -73.28125 80.40625 C-84.53041441 65.67142901 -87.49707396 51.21174546 -86 33 C-85.14903053 29.01339302 -83.84006021 25.62564495 -82 22 C-81.4740625 20.85724609 -81.4740625 20.85724609 -80.9375 19.69140625 C-74.47567208 6.7453135 -62.65006766 -3.3091787 -49 -8 C-31.43179391 -13.08216576 -15.35213899 -9.64879982 0 0 Z " fill="#D31D29" transform="translate(270,68)"/>
<path d="M0 0 C0.88365234 0.00451172 1.76730469 0.00902344 2.67773438 0.01367188 C4.84768559 0.02540134 7.01760172 0.04333505 9.1875 0.0625 C7.66510527 4.94269994 5.62845658 9.20962681 3.2109375 13.6953125 C1.92293855 16.244599 1.92293855 16.244599 2.1875 20.0625 C5.98303971 22.39054551 5.98303971 22.39054551 10.25683594 22.87719727 C12.74062314 21.82909434 13.18797783 20.87815526 14.328125 18.46484375 C14.67617188 17.74619141 15.02421875 17.02753906 15.3828125 16.28710938 C15.73085938 15.53236328 16.07890625 14.77761719 16.4375 14 C16.80101562 13.24138672 17.16453125 12.48277344 17.5390625 11.70117188 C18.43458794 9.82763839 19.31272601 7.94581197 20.1875 6.0625 C31.54265977 9.20009016 38.66839229 15.24343074 45.1875 25.0625 C52.9124509 39.29896924 55.84783031 53.03259392 51.2890625 68.98828125 C45.63248796 84.77453716 36.54002042 96.70938964 21.1875 104.0625 C6.74784652 109.81385686 -9.03610849 109.9262744 -23.39453125 103.99609375 C-36.56685862 97.86519484 -46.17043051 88.1566832 -51.75 74.625 C-53.99545579 68.22932249 -55.07535095 61.78485921 -55.8125 55.0625 C-56.39257812 54.92714844 -56.97265625 54.79179687 -57.5703125 54.65234375 C-63.76999468 52.94385048 -67.33887382 50.52105543 -70.8125 45.0625 C-72.75045159 39.24864524 -72.83305692 33.14141224 -70.125 27.625 C-66.55672508 23.67096563 -63.06824395 20.37643599 -57.8125 19.0625 C-53.36474653 19.20623351 -49.10816728 19.92283317 -44.8125 21.0625 C-43.94625 19.8559375 -43.94625 19.8559375 -43.0625 18.625 C-31.9648374 5.46990557 -16.72696848 -0.16215555 0 0 Z " fill="#D31D29" transform="translate(263.8125,200.9375)"/>
<path d="M0 0 C0.65355469 0.47308594 1.30710937 0.94617188 1.98046875 1.43359375 C11.31833997 8.71012475 18.29157899 21.13590974 20.71484375 32.6640625 C22.73307277 49.19695226 18.91126158 63.81702511 9.328125 77.36328125 C3.19326231 84.95320753 -6.42228711 92.59982425 -16.25 94.1875 C-18.10625 94.5896875 -18.10625 94.5896875 -20 95 C-21.2086563 97.79101437 -21.2086563 97.79101437 -22 101 C-26.48701092 105.89389353 -30.50472885 108.12645423 -37.1875 108.4375 C-42.40237637 108.36852015 -45.41160268 107.2855359 -49.37109375 103.91796875 C-51.66321853 101.21908801 -52.64386052 98.30811654 -53.89453125 95.03125 C-55.54988308 91.98961413 -57.69489004 91.29042565 -60.796875 89.9921875 C-72.00772565 84.94332923 -79.67563019 74.08393596 -84 62.9375 C-84.68831705 60.96575844 -85.3593472 58.9877397 -86 57 C-86.33 56.01 -86.66 55.02 -87 54 C-88.54313475 36.03322346 -86.6077706 22.29475453 -75 8 C-72.5 5.25 -72.5 5.25 -70 3 C-69.52433594 2.53207031 -69.04867187 2.06414062 -68.55859375 1.58203125 C-49.86769294 -15.93787337 -19.71973707 -15.07979894 0 0 Z " fill="#D31D29" transform="translate(150,192)"/>
<path d="M0 0 C1.52016724 0.00749268 1.52016724 0.00749268 3.07104492 0.01513672 C11.26566779 0.20535849 17.48316584 1.54291646 24.75 5.5 C26.09578125 6.18642578 26.09578125 6.18642578 27.46875 6.88671875 C40.27847092 13.9282069 48.82966495 25.569477 53.25 39.4375 C56.95443879 54.27171933 54.6390586 68.20955597 47.54296875 81.61328125 C39.48357908 94.5890742 26.86017084 104.28977115 11.9375 107.8125 C-2.42553252 110.14961272 -16.54615023 108.32834245 -28.875 100.2578125 C-41.21593217 91.12389889 -49.99347001 79.80814475 -53.25 64.5 C-54.10925567 53.33915771 -54.70497549 41.55710821 -49.25 31.5 C-48.74082031 30.49839844 -48.23164063 29.49679687 -47.70703125 28.46484375 C-40.21760427 14.63425433 -28.69414574 5.80257661 -13.70678711 1.07348633 C-9.16029927 0.01220242 -4.65094955 -0.03012323 0 0 Z " fill="#D31D29" transform="translate(194.25,324.5)"/>
<path d="M0 0 C1.52016724 0.00749268 1.52016724 0.00749268 3.07104492 0.01513672 C11.26566779 0.20535849 17.48316584 1.54291646 24.75 5.5 C26.09578125 6.18642578 26.09578125 6.18642578 27.46875 6.88671875 C40.27847092 13.9282069 48.82966495 25.569477 53.25 39.4375 C56.95443879 54.27171933 54.6390586 68.20955597 47.54296875 81.61328125 C39.48357908 94.5890742 26.86017084 104.28977115 11.9375 107.8125 C-2.42553252 110.14961272 -16.54615023 108.32834245 -28.875 100.2578125 C-41.21593217 91.12389889 -49.99347001 79.80814475 -53.25 64.5 C-54.10925567 53.33915771 -54.70497549 41.55710821 -49.25 31.5 C-48.74082031 30.49839844 -48.23164063 29.49679688 -47.70703125 28.46484375 C-40.21760427 14.63425433 -28.69414574 5.80257661 -13.70678711 1.07348633 C-9.16029927 0.01220242 -4.65094955 -0.03012323 0 0 Z " fill="#D31D29" transform="translate(382.25,136.5)"/>
<path d="M0 0 C15.15501243 2.80648378 25.94712576 10.61421911 34.94921875 22.9296875 C37.52941642 26.79261201 39.4551973 30.62972914 41 35 C41.35320312 35.84820312 41.70640625 36.69640625 42.0703125 37.5703125 C45.5667832 50.46905734 44.22088743 66.2130554 38 78 C34.65625262 83.63638511 30.88407788 88.60432991 26 93 C25.5359375 93.46792969 25.071875 93.93585938 24.59375 94.41796875 C14.2343087 104.29498508 0.48961948 107.48904516 -13.375 107.25 C-28.38267044 106.21498825 -40.22235718 100.36375484 -51 90 C-61.14678362 78.34361957 -65.57500884 63.86301316 -65.3125 48.62109375 C-63.97431139 33.11483319 -55.75584934 19.33238477 -44 9.4375 C-42.1875 7.93359375 -42.1875 7.93359375 -40 7 C-38.90945313 7.16628906 -37.81890625 7.33257812 -36.6953125 7.50390625 C-32.2680852 8.09825918 -29.97002378 7.19200983 -25.875 5.5 C-18.46369827 2.4511494 -18.46369827 2.4511494 -14 4 C-12.78979492 5.91772461 -12.78979492 5.91772461 -11.98046875 8.40234375 C-11.68076172 9.29244141 -11.38105469 10.18253906 -11.07226562 11.09960938 C-10.78029297 12.03611328 -10.48832031 12.97261719 -10.1875 13.9375 C-9.72053711 15.33645508 -9.72053711 15.33645508 -9.24414062 16.76367188 C-7 23.58487294 -7 23.58487294 -7 26 C-3.04 25.01 0.92 24.02 5 23 C6.04828929 17.98890831 6.04828929 17.98890831 4.78515625 13.57421875 C4.51123047 12.77822266 4.23730469 11.98222656 3.95507812 11.16210938 C3.66052734 10.34548828 3.36597656 9.52886719 3.0625 8.6875 C2.77181641 7.85154297 2.48113281 7.01558594 2.18164062 6.15429688 C1.46524446 4.09906197 0.73406239 2.04899155 0 0 Z " fill="#D31D29" transform="translate(366,302)"/>
<path d="M0 0 C0.04898438 1.26714844 0.09796875 2.53429687 0.1484375 3.83984375 C0.22354191 5.53908096 0.29908632 7.23829876 0.375 8.9375 C0.4059375 9.76830078 0.436875 10.59910156 0.46875 11.45507812 C1.06282144 24.17810813 4.17966794 35.2590943 12.51171875 45.08984375 C14 47 14 47 15 50 C16.485 50.495 16.485 50.495 18 51 C17.54560547 52.80404297 17.54560547 52.80404297 17.08203125 54.64453125 C14.54237986 64.92402379 12.38309814 75.19344479 10.5625 85.625 C7.10546541 105.00869669 2.63052672 123.85832143 -12 138 C-12.33 138 -12.66 138 -13 138 C-13.02578125 137.28457031 -13.0515625 136.56914062 -13.078125 135.83203125 C-13.95350591 120.45318031 -19.21747432 104.5149171 -31 94 C-43.09645071 84.50578445 -55.68275946 80.89234592 -71 80 C-74.71192519 66.68775423 -74.32424945 54.45685498 -68 42 C-67.34 41.01 -66.68 40.02 -66 39 C-65.01 39.33 -64.02 39.66 -63 40 C-57.22695307 41.60297883 -52.2705452 41.82393234 -46.75 39.4375 C-43.59189655 37.62842893 -41.28146414 35.68450081 -39.609375 32.34765625 C-38.23141931 27.03899361 -38.72869422 21.43365195 -39 16 C-18.95916109 6.1491209 -18.95916109 6.1491209 -8.8125 2.375 C-7.81669922 2.0044751 -7.81669922 2.0044751 -6.80078125 1.62646484 C-2.29488892 0 -2.29488892 0 0 0 Z " fill="#FBBE12" transform="translate(184,101)"/>
<path d="M0 0 C2.67111201 1.07363143 3.01225628 2.1584246 4.19921875 4.74609375 C10.74321305 17.20143033 21.16729241 24.67082321 34.01171875 29.80859375 C34.34171875 40.69859375 34.67171875 51.58859375 35.01171875 62.80859375 C36.99171875 63.13859375 38.97171875 63.46859375 41.01171875 63.80859375 C43.64453125 65.078125 43.64453125 65.078125 46.13671875 66.62109375 C46.96429688 67.12253906 47.791875 67.62398438 48.64453125 68.140625 C54.7444299 72.43873841 54.7444299 72.43873841 55.51171875 76.37109375 C55.01171875 78.80859375 55.01171875 78.80859375 53.45703125 80.29296875 C50.27562325 82.26483186 46.93047853 83.37254539 43.38671875 84.49609375 C42.70609375 84.72103516 42.02546875 84.94597656 41.32421875 85.17773438 C36.30771514 86.80859375 36.30771514 86.80859375 34.01171875 86.80859375 C34.22900635 87.41856201 34.44629395 88.02853027 34.67016602 88.65698242 C35.65085578 91.4323951 36.61266445 94.21399665 37.57421875 96.99609375 C37.91646484 97.95580078 38.25871094 98.91550781 38.61132812 99.90429688 C39.08989258 101.30131836 39.08989258 101.30131836 39.578125 102.7265625 C39.87662354 103.58016357 40.17512207 104.43376465 40.48266602 105.31323242 C41.09809419 108.21599722 40.97474133 110.00596256 40.01171875 112.80859375 C35.21859303 115.53409661 32.67226636 115.80859375 27.01171875 115.80859375 C23.05171875 104.91859375 23.05171875 104.91859375 19.01171875 93.80859375 C13.10747146 94.65205765 9.1746964 95.7979121 3.85546875 98.06640625 C1.01171875 98.80859375 1.01171875 98.80859375 -2.48046875 98.17578125 C-6.02794613 97.46440746 -6.02794613 97.46440746 -8.90234375 99.43359375 C-13.99515902 103.89531088 -18.42129661 108.02761864 -21.98828125 113.80859375 C-25.99339916 110.55443545 -29.54823544 107.27700811 -32.92578125 103.37109375 C-36.62673868 99.09797264 -40.63704183 95.40762423 -44.98828125 91.80859375 C-42.54214427 89.83253292 -40.09103243 87.88425298 -37.55859375 86.01953125 C-26.14961458 77.45368427 -18.89704587 65.38097821 -16.2734375 51.26953125 C-14.483003 35.81783621 -18.25722633 24.03974203 -25.98828125 10.80859375 C-26.66660203 9.48115142 -27.3377711 8.14988372 -27.98828125 6.80859375 C-23.26219925 4.63557048 -18.36980641 3.75073099 -13.30078125 2.74609375 C-11.58803903 2.40354531 -9.87577238 2.05860776 -8.1640625 1.7109375 C-7.0335144 1.48651978 -7.0335144 1.48651978 -5.88012695 1.25756836 C-0.41341076 -0.03979789 -0.41341076 -0.03979789 0 0 Z " fill="#FED03F" transform="translate(331.98828125,212.19140625)"/>
<path d="M0 0 C0.495 1.98 0.495 1.98 1 4 C1.87072144 4.04193481 1.87072144 4.04193481 2.7590332 4.0847168 C9.98638805 4.60070225 16.36103269 6.45721917 23.1875 8.8125 C24.22841797 9.15603516 25.26933594 9.49957031 26.34179688 9.85351562 C31.95955837 11.75463745 36.97792595 13.83900573 42 17 C41.63648438 17.46148437 41.27296875 17.92296875 40.8984375 18.3984375 C36.81721275 23.693565 33.16462421 29.10633187 30 35 C29.58234375 35.76183594 29.1646875 36.52367187 28.734375 37.30859375 C23.47381802 48.88552373 24.32993256 65.51156006 28.34375 77.3671875 C28.5603125 77.90601563 28.776875 78.44484375 29 79 C21.79694559 81.38895272 14.48469165 83.06493894 7.07080078 84.64160156 C2.92254649 85.47568728 2.92254649 85.47568728 -1 87 C-1.5775 86.13375 -2.155 85.2675 -2.75 84.375 C-6.65145642 79.62540088 -12.43303451 77.31888371 -18 75 C-18.66 75 -19.32 75 -20 75 C-20.53109375 76.14339844 -21.0621875 77.28679687 -21.609375 78.46484375 C-22.32217014 79.95608622 -23.0357529 81.44695241 -23.75 82.9375 C-24.27207031 84.06961914 -24.27207031 84.06961914 -24.8046875 85.22460938 C-25.15273438 85.94326172 -25.50078125 86.66191406 -25.859375 87.40234375 C-26.17358398 88.06741943 -26.48779297 88.73249512 -26.81152344 89.41772461 C-28 91 -28 91 -30.01367188 91.7734375 C-33.64320925 92.18742603 -36.01519017 89.89420624 -39 88 C-38.45318976 82.99399078 -36.75859667 79.02818933 -34.4375 74.625 C-34.10814453 73.98433594 -33.77878906 73.34367187 -33.43945312 72.68359375 C-32.63360518 71.11861368 -31.81781507 69.55875979 -31 68 C-34.02106753 68.14184833 -37.04179097 68.28835667 -40.0625 68.4375 C-40.91005859 68.47681641 -41.75761719 68.51613281 -42.63085938 68.55664062 C-47.48000209 68.80003389 -52.20628212 69.22598042 -57 70 C-75 38.79508197 -75 38.79508197 -75 33 C-73.27716797 32.96132812 -73.27716797 32.96132812 -71.51953125 32.921875 C-54.26455936 32.36622538 -40.54180848 28.18671135 -27 17 C-26.01 17.66 -25.02 18.32 -24 19 C-17.61423589 19.70952935 -11.36666118 19.89082936 -6 16 C-1.14188929 11.68167937 -0.81741858 6.14139488 0 0 Z " fill="#FBBE12" transform="translate(304,133)"/>
<path d="M0 0 C3.3420171 1.58805068 6.41846982 3.49079689 9.5625 5.4375 C14.54533595 8.39300563 19.04782962 10.10758543 24.72265625 11.19921875 C27.73461642 12.25831281 28.39132178 13.23784646 30 16 C31.31095309 18.75793781 32.50013102 21.56206635 33.6875 24.375 C36.84315061 31.69849103 40.42121514 38.54601899 44.53125 45.375 C46 48 46 48 46 50 C45.09378906 50.42410156 44.18757813 50.84820312 43.25390625 51.28515625 C33.31625295 56.03058041 24.75349525 61.0679579 18 70 C17.030625 69.649375 16.06125 69.29875 15.0625 68.9375 C9.21832205 67.29308556 4.06626155 67.94737619 -1.3125 70.6875 C-5.10392167 73.94988609 -7.66709149 76.49009428 -8.34765625 81.62109375 C-8.5186263 87.09956885 -8.25353399 91.40017608 -5 96 C-1.15433633 99.84566367 2.94404921 101.28611838 8 103 C8.12117188 103.83402344 8.24234375 104.66804688 8.3671875 105.52734375 C9.34461632 112.09115424 10.46783577 118.54302216 12 125 C5.84607095 125.70942063 -0.25795538 126.12138949 -6.44946289 126.29077148 C-16.71142506 126.57411498 -26.8632374 127.26167073 -37.0625 128.4375 C-38.13757813 128.5597998 -39.21265625 128.68209961 -40.3203125 128.80810547 C-46.02307914 129.50112499 -51.46328092 130.46460731 -57 132 C-55.6489873 127.66332386 -53.99025057 125.90889052 -50.3125 123.3125 C-39.93523007 115.31273139 -34.46457685 104.03707226 -31.75 91.375 C-30.62834648 86.90113199 -28.96388521 84.53988925 -25.75 81.25 C-11.48442362 66.49809715 -9.10604458 43.33968123 -5.81518555 24.03735352 C-4.39525203 15.8219025 -2.66002667 7.90577759 0 0 Z " fill="#FECF3F" transform="translate(201,153)"/>
<path d="M0 0 C3.17509864 1.58754932 3.52691427 4.86894711 4.625 8.0625 C6.76831892 14.10530741 9.3011217 19.71830857 12.3125 25.375 C15.46659554 31.35527566 17 36.1164605 17 43 C16.32710937 42.08927734 16.32710937 42.08927734 15.640625 41.16015625 C11.78172522 36.07927153 8.19295641 32.85788692 2 31 C-3.97420289 30.73934542 -8.44716204 31.9765618 -13 36 C-16.40060711 40.5639727 -17.67486349 44.02183321 -17.3828125 49.7265625 C-16.48993708 55.02914919 -14.27113019 58.72886981 -10.5 62.5 C-4.87265613 64.9117188 1.39089102 65.29801288 7.2265625 63.19921875 C10.24225264 61.53738099 12.627174 59.45731832 15 57 C11.63427555 75.51148446 1.59946727 92.20552297 -13 104 C-15.24254141 101.03737648 -17.41992775 98.03569632 -19.5625 95 C-20.16191406 94.154375 -20.76132812 93.30875 -21.37890625 92.4375 C-23 90 -23 90 -23.96484375 87.8125 C-25.29745397 85.47917494 -26.56532213 85.06069606 -29 84 C-30.34313374 83.07659555 -31.67587475 82.13796112 -33 81.1875 C-39.1571346 77.01455828 -45.96779295 74.34406902 -53 72 C-53 71.01 -53 70.02 -53 69 C-52.14450562 68.68977905 -52.14450562 68.68977905 -51.27172852 68.37329102 C-48.70092825 67.43924145 -46.13170435 66.5009299 -43.5625 65.5625 C-42.66466797 65.23701172 -41.76683594 64.91152344 -40.84179688 64.57617188 C-39.98779297 64.26357422 -39.13378906 63.95097656 -38.25390625 63.62890625 C-37.46314697 63.34088135 -36.6723877 63.05285645 -35.85766602 62.75610352 C-34.01805588 62.14751082 -34.01805588 62.14751082 -33 61 C-32.59293746 58.60834607 -32.59293746 58.60834607 -33 56 C-37.92302575 50.28025269 -45.00154942 47.35229758 -52 45 C-53.09266243 37.97942879 -53.11532882 31.09531697 -53.0625 24 C-53.05798828 22.84371094 -53.05347656 21.68742187 -53.04882812 20.49609375 C-53.03712529 17.66400775 -53.02072996 14.83203189 -53 12 C-52.42934814 12.14074951 -51.85869629 12.28149902 -51.27075195 12.42651367 C-34.97420392 16.27626562 -20.34239545 13.46159024 -6 5 C-3.82484247 3.43584178 -1.95160595 1.84318339 0 0 Z " fill="#FBBE12" transform="translate(419,230)"/>
<path d="M0 0 C1 1 1 1 1.40625 3.1171875 C0.79751411 7.43687102 -1.71796044 9.87814794 -4.5 13.125 C-8.60833622 17.4690383 -8.60833622 17.4690383 -10 23 C-8.4275463 24.56596776 -8.4275463 24.56596776 -6.31640625 25.99609375 C-5.55392578 26.55490234 -4.79144531 27.11371094 -4.00585938 27.68945312 C-2.38138524 28.85164685 -0.75638778 30.01310945 0.86914062 31.17382812 C2.01479492 32.01397461 2.01479492 32.01397461 3.18359375 32.87109375 C3.89056396 33.37568115 4.59753418 33.88026855 5.32592773 34.40014648 C7.26900668 36.25708047 7.74569164 37.34348147 8 40 C6.78515625 42.140625 6.78515625 42.140625 5.0625 44.25 C4.49660156 44.95640625 3.93070312 45.6628125 3.34765625 46.390625 C2.90292969 46.92171875 2.45820313 47.4528125 2 48 C-4.6345235 47.73254847 -7.99161363 45.18445836 -12.9375 40.9375 C-13.62134766 40.36966797 -14.30519531 39.80183594 -15.00976562 39.21679688 C-16.68372763 37.82377954 -18.34336363 36.41357775 -20 35 C-23.34512714 38.25155715 -26.37142377 41.58036465 -29.25 45.25 C-33.74225481 50.95820348 -33.74225481 50.95820348 -36.3125 51.375 C-39 51 -39 51 -41.125 49.125 C-45.713141 41.47809834 -47.46582649 33.01163363 -45.34375 24.30859375 C-41.54814145 12.54547931 -34.24040357 5.43290015 -23.9375 -0.875 C-17.02282258 -3.58632363 -6.55225774 -3.25177103 0 0 Z " fill="#EED3B7" transform="translate(357,81)"/>
<path d="M0 0 C3.05280773 0.04028632 5.22516091 0.21222052 7.43261719 2.45654297 C8.84161356 4.40276411 10.12191513 6.38751372 11.375 8.4375 C11.82488281 9.13166016 12.27476563 9.82582031 12.73828125 10.54101562 C16 15.66161664 16 15.66161664 16 18 C18.98056136 16.18978587 21.95920951 14.37644749 24.9375 12.5625 C26.21270508 11.7880957 26.21270508 11.7880957 27.51367188 10.99804688 C28.32255859 10.50498047 29.13144531 10.01191406 29.96484375 9.50390625 C31.08814087 8.82050171 31.08814087 8.82050171 32.23413086 8.12329102 C33.95222926 7.12013912 33.95222926 7.12013912 35 6 C37.75 5.4375 37.75 5.4375 41 6 C43.66278583 8.8380578 46.04634013 12.00737426 45.953125 16.015625 C44.54530155 18.94666727 42.46854437 20.16478446 39.8125 22 C38.32363281 23.03640625 38.32363281 23.03640625 36.8046875 24.09375 C35.87914062 24.7228125 34.95359375 25.351875 34 26 C33.34257813 26.4640625 32.68515625 26.928125 32.0078125 27.40625 C28.28392857 30 28.28392857 30 26 30 C28.98342953 35.58402961 32.15258022 40.79407221 35.9609375 45.859375 C37.32332677 48.66610177 36.97549182 50.08318287 36 53 C33.06723996 55.93276004 29.93358953 55.42742141 26 55.4375 C16.29722332 55.41311861 10.02131884 52.97213738 2.75 46.4375 C-4.65947371 38.56211618 -8.37551502 28.87327257 -8.28515625 18.2109375 C-7.6612999 11.18614405 -4.80996539 5.15353435 0 0 Z " fill="#EED3B7" transform="translate(94,316)"/>
<path d="M0 0 C2.58994564 1.80497119 4.98865818 3.60808428 7.0625 6 C7.5 8.5 7.5 8.5 7.0625 11 C3.76229399 14.16720023 -0.29488345 15.33445299 -4.5625 16.6875 C-5.243125 16.91244141 -5.92375 17.13738281 -6.625 17.36914062 C-11.64150361 19 -11.64150361 19 -13.9375 19 C-13.7202124 19.60996826 -13.5029248 20.21993652 -13.27905273 20.84838867 C-12.29836297 23.62380135 -11.3365543 26.4054029 -10.375 29.1875 C-10.03275391 30.14720703 -9.69050781 31.10691406 -9.33789062 32.09570312 C-9.01884766 33.02705078 -8.69980469 33.95839844 -8.37109375 34.91796875 C-7.92334595 36.19837036 -7.92334595 36.19837036 -7.46655273 37.50463867 C-6.85112456 40.40740347 -6.97447742 42.19736881 -7.9375 45 C-12.73062572 47.72550286 -15.27695239 48 -20.9375 48 C-23.5775 40.74 -26.2175 33.48 -28.9375 26 C-34.8574154 26.8457022 -38.91974004 28.02700517 -44.2890625 30.2578125 C-47.30873644 31.10403381 -48.9737559 30.96094092 -51.9375 30 C-52.5975 29.34 -53.2575 28.68 -53.9375 28 C-53.9375 19.15640842 -50.68082202 11.24749639 -44.8203125 4.59765625 C-31.83082954 -7.4704274 -15.23252211 -9.89252648 0 0 Z " fill="#EED1B7" transform="translate(379.9375,280)"/>
<path d="M0 0 C6.02754899 0.83983266 10.41826147 6.73745796 14.2265625 11.15625 C18.35756974 17.67110013 17.67135175 26.96873281 16.69140625 34.375 C14.5825217 42.27317819 9.29384676 47.76233608 2.69140625 52.375 C-0.81315574 53.98846053 -3.4309955 54.79419981 -7.30859375 54.375 C-9.30859375 52.375 -9.30859375 52.375 -9.3203125 48.78515625 C-9.22311399 47.33516756 -9.11456494 45.88590579 -8.99609375 44.4375 C-8.94775391 43.70853516 -8.89941406 42.97957031 -8.84960938 42.22851562 C-8.62266256 39.0943514 -8.30610053 36.36752035 -7.30859375 33.375 C-7.90397949 33.3248877 -8.49936523 33.27477539 -9.11279297 33.22314453 C-11.80395515 32.99139243 -14.49368639 32.74587148 -17.18359375 32.5 C-18.12074219 32.42136719 -19.05789062 32.34273437 -20.0234375 32.26171875 C-20.91933594 32.17792969 -21.81523437 32.09414062 -22.73828125 32.0078125 C-23.56569824 31.93449707 -24.39311523 31.86118164 -25.24560547 31.78564453 C-27.30859375 31.375 -27.30859375 31.375 -29.30859375 29.375 C-29.6326371 25.00041479 -29.42390078 22.18591029 -27.30859375 18.375 C-24.57913515 18.51643832 -21.85011252 18.66299529 -19.12109375 18.8125 C-18.35216797 18.85181641 -17.58324219 18.89113281 -16.79101562 18.93164062 C-12.876083 19.15007034 -9.13738687 19.46192108 -5.30859375 20.375 C-5.32019531 19.7459375 -5.33179688 19.116875 -5.34375 18.46875 C-5.40139434 13.00077234 -5.27121353 7.76567074 -4.30859375 2.375 C-2.30859375 0.375 -2.30859375 0.375 0 0 Z " fill="#EED3B5" transform="translate(174.30859375,139.625)"/>
<path d="M0 0 C0.68707031 0.4434375 1.37414062 0.886875 2.08203125 1.34375 C3.01015625 1.92125 3.93828125 2.49875 4.89453125 3.09375 C9.86758849 8.20889459 13.22285342 14.74871999 13.26953125 21.84375 C13.28371094 22.8234375 13.29789062 23.803125 13.3125 24.8125 C13.08203125 27.34375 13.08203125 27.34375 11.08203125 29.34375 C7.24871795 28.98640723 4.31844446 27.58531122 0.95703125 25.78125 C-2.76041391 23.75695509 -2.76041391 23.75695509 -6.91796875 23.34375 C-7.4490625 24.48714844 -7.98015625 25.63054687 -8.52734375 26.80859375 C-9.24013889 28.29983622 -9.95372165 29.79070241 -10.66796875 31.28125 C-11.01601563 32.03599609 -11.3640625 32.79074219 -11.72265625 33.56835938 C-12.07070313 34.28701172 -12.41875 35.00566406 -12.77734375 35.74609375 C-13.24865723 36.74370728 -13.24865723 36.74370728 -13.72949219 37.76147461 C-14.91796875 39.34375 -14.91796875 39.34375 -16.93164062 40.1171875 C-20.561178 40.53117603 -22.93315892 38.23795624 -25.91796875 36.34375 C-25.36596055 31.67613638 -24.05535403 28.23348683 -21.85546875 24.09375 C-19.68314234 20.40329397 -19.68314234 20.40329397 -18.91796875 16.34375 C-20.41650391 15.67279297 -20.41650391 15.67279297 -21.9453125 14.98828125 C-23.24915118 14.37857251 -24.5525123 13.7678418 -25.85546875 13.15625 C-26.51482422 12.86427734 -27.17417969 12.57230469 -27.85351562 12.27148438 C-29.7578125 11.36328125 -29.7578125 11.36328125 -32.91796875 9.34375 C-33.859375 6.60546875 -33.859375 6.60546875 -33.91796875 4.34375 C-23.88758378 -4.70806082 -12.1642868 -7.07454483 0 0 Z " fill="#EED3B5" transform="translate(286.91796875,358.65625)"/>
<path d="M0 0 C6.72046895 4.58663756 11.57369368 10.1557281 14 18 C14.44736676 21.39808366 14.61783199 24.61818279 14 28 C13.34 28.66 12.68 29.32 12 30 C6.7703876 29.86925969 2.68016066 27.46984351 -1.828125 25.05859375 C-3.89694852 23.85395436 -3.89694852 23.85395436 -6 24 C-6.53109375 25.14339844 -7.0621875 26.28679687 -7.609375 27.46484375 C-8.32217014 28.95608622 -9.0357529 30.44695241 -9.75 31.9375 C-10.09804688 32.69224609 -10.44609375 33.44699219 -10.8046875 34.22460938 C-11.15273438 34.94326172 -11.50078125 35.66191406 -11.859375 36.40234375 C-12.33068848 37.39995728 -12.33068848 37.39995728 -12.81152344 38.41772461 C-14 40 -14 40 -16.01367188 40.7734375 C-19.64320925 41.18742603 -22.01519017 38.89420624 -25 37 C-24.4479918 32.33238638 -23.13738528 28.88973683 -20.9375 24.75 C-18.76517359 21.05954397 -18.76517359 21.05954397 -18 17 C-19.49853516 16.32904297 -19.49853516 16.32904297 -21.02734375 15.64453125 C-22.33118243 15.03482251 -23.63454355 14.4240918 -24.9375 13.8125 C-25.59685547 13.52052734 -26.25621094 13.22855469 -26.93554688 12.92773438 C-28.83984375 12.01953125 -28.83984375 12.01953125 -32 10 C-32.94140625 7.26171875 -32.94140625 7.26171875 -33 5 C-23.65798095 -3.64136762 -11.65782029 -6.06369987 0 0 Z " fill="#EED0B5" transform="translate(290,184)"/>
<path d="M0 0 C5.18293819 3.22113183 8.32724669 6.20240047 10.55078125 11.90625 C11.5005696 16.96569948 10.97784375 20.7673746 8.36328125 25.21875 C5.43840322 29.37820828 2.43906642 32.27682161 -2.44921875 33.90625 C-8.25244892 34.64688842 -13.05246335 34.76076265 -17.94921875 31.28125 C-21.947199 27.75024695 -24.1175246 24.71515364 -24.7578125 19.29296875 C-25.02529479 13.30298664 -24.61660149 9.51230461 -20.44921875 4.90625 C-14.56699446 -0.73024169 -7.84619663 -3.50388366 0 0 Z " fill="#52463E" transform="translate(120.44921875,266.09375)"/>
<path d="M0 0 C4.01563175 2.60220426 6.48229475 6.01823688 8.25 10.4375 C9.37692888 16.10180041 8.26103089 20.7263741 5.4609375 25.7109375 C2.98314975 29.24378325 0.29231553 31.09006149 -3.75 32.4375 C-9.29046352 32.92518871 -14.14894848 33.18084535 -19.25 30.8125 C-23.9910802 26.30847381 -26.84375849 21.77277083 -27.0625 15.1875 C-26.99694069 10.14762812 -25.70328055 7.50823805 -22.75 3.4375 C-15.93422939 -3.02874391 -8.48371234 -4.16776261 0 0 Z " fill="#534A3C" transform="translate(427.75,262.5625)"/>
<path d="M0 0 C4.34355645 1.96628529 7.17662106 4.1841226 9.79296875 8.265625 C11.5510087 13.53974485 11.83135662 19.33484801 9.95703125 24.625 C7.08521039 29.75187483 3.42490197 32.60733355 -2.20703125 34.265625 C-7.76661452 35.18868558 -12.32867481 34.02695883 -17.20703125 31.265625 C-21.39382484 27.31143105 -24.46585831 22.85928119 -24.64453125 17.015625 C-24.49667167 11.72747057 -22.71053425 8.17730311 -19.20703125 4.265625 C-13.45264768 -0.88830116 -7.40265687 -2.46318494 0 0 Z " fill="#534A3E" transform="translate(135.20703125,108.734375)"/>
<path d="M0 0 C4.2923264 3.11404072 6.51820475 6.30461425 8.1875 11.3125 C8.60949679 16.79845821 7.79207866 20.46259491 5.1875 25.3125 C1.66549001 29.37635768 -1.20875193 32.00063045 -6.6171875 32.6484375 C-12.85124265 32.72775118 -17.01568086 32.74955771 -21.8125 28.3125 C-26.56900217 23.04178138 -27.1667151 18.95250602 -27.09375 12.0390625 C-26.57312196 6.99186289 -23.96783389 4.37896205 -20.375 1.0625 C-13.73354864 -3.47312532 -7.21776293 -3.70977492 0 0 Z " fill="#6C6158" transform="translate(218.8125,222.6875)"/>
<path d="M0 0 C4.09607594 2.3675319 7.02629425 4.96065311 8.75 9.4375 C9.64630347 15.85813545 9.67248712 22.02717293 5.75 27.4375 C0.65092623 32.26820147 -4.04218805 33.92687967 -10.97265625 33.75390625 C-15.94450655 33.0631346 -19.23299574 30.53479407 -22.625 26.875 C-26.17361238 21.55208144 -25.9469571 15.62199292 -25.25 9.4375 C-23.3630711 4.66517758 -19.74505846 1.37550652 -15.19921875 -0.90234375 C-9.9606453 -2.67652995 -5.02765384 -2.18717144 0 0 Z " fill="#524A3E" transform="translate(288.25,411.5625)"/>
<path d="M0 0 C5.03359633 2.3843351 8.49996787 5.99993573 11 11 C11.52779267 17.2117137 11.74403643 22.758349 8 28 C3.41373868 32.59879209 -0.35565441 34.15818545 -6.8125 34.3125 C-12.06392752 34.24915347 -15.10913098 33.79359729 -19 30 C-22.80008091 24.47819959 -24.83033109 19.74940555 -24 13 C-22.44959278 7.90980762 -19.78135867 3.73606776 -15.2578125 0.84765625 C-10.31569025 -1.00777719 -5.15766761 -0.71781972 0 0 Z " fill="#52473E" transform="translate(293,119)"/>
<path d="M0 0 C0.8125 2.125 0.8125 2.125 1 4 C0.10539062 4.01417969 -0.78921875 4.02835937 -1.7109375 4.04296875 C-12.6026209 4.47259805 -20.83967103 6.7524889 -28.3984375 14.90234375 C-35.288523 23.92667525 -37.66095005 31.82533284 -37 43 C-36.50301178 45.76152584 -35.81279982 48.3076006 -35 51 C-39.54705922 50.50842603 -39.54705922 50.50842603 -41.5625 48.24609375 C-45.5215842 42.06002469 -47.06044544 34.24236035 -46 27 C-42.81820176 13.95083935 -35.09138439 5.95390881 -23.9375 -0.875 C-17.33938437 -3.46219615 -6.09863706 -3.57076333 0 0 Z " fill="#C9B398" transform="translate(357,81)"/>
<path d="M0 0 C1.32 0.33 2.64 0.66 4 1 C3.67515625 1.80050781 3.67515625 1.80050781 3.34375 2.6171875 C-0.16615314 12.00942831 -0.02475833 20.75742997 4 30 C8.67174371 38.65570293 15.08423091 44.28860583 24 48.375 C28.30343319 49.27154858 32.6201811 49.67108079 37 50 C35.125 53.875 35.125 53.875 34 55 C22.62600096 55.89760985 14.09809826 55.53779558 4.83203125 48.30859375 C-1.66673166 42.46824209 -7.41589642 33.29108283 -8.23828125 24.43359375 C-8.47418156 14.91067084 -6.65415374 7.12945043 0 0 Z " fill="#C8B398" transform="translate(94,316)"/>
<path d="M0 0 C2.58592933 1.80217217 5.01489063 3.58992562 7.0625 6 C7.25 8.6875 7.25 8.6875 7.0625 11 C4.53792578 9.99107518 2.01406495 8.98049348 -0.5078125 7.96484375 C-1.77238281 7.45630859 -1.77238281 7.45630859 -3.0625 6.9375 C-4.33480469 6.42509766 -4.33480469 6.42509766 -5.6328125 5.90234375 C-14.02383553 2.6170449 -22.01688601 3.29204177 -30.30078125 6.68359375 C-40.56767601 11.80943602 -45.90192552 19.45119601 -49.9375 30 C-48.9475 30.33 -47.9575 30.66 -46.9375 31 C-51.6875 30.25 -51.6875 30.25 -53.9375 28 C-53.9375 19.15640842 -50.68082202 11.24749639 -44.8203125 4.59765625 C-31.83082954 -7.4704274 -15.23252211 -9.89252648 0 0 Z " fill="#C9B398" transform="translate(379.9375,280)"/>
<path d="M0 0 C6.06577334 0.6883147 10.47892982 6.6728327 14.2890625 11.09375 C18.42006974 17.60860013 17.73385175 26.90623281 16.75390625 34.3125 C14.6450217 42.21067819 9.35634676 47.69983608 2.75390625 52.3125 C-0.78469189 53.95712582 -3.33963369 54.53572629 -7.24609375 54.3125 C-7.74109375 52.8275 -7.74109375 52.8275 -8.24609375 51.3125 C-7.21484375 50.796875 -6.18359375 50.28125 -5.12109375 49.75 C1.04400714 46.15577114 4.55575463 41.85883809 6.62890625 35 C8.59303249 26.45371263 8.76143833 18.29798828 4.75390625 10.3125 C2.38214999 6.99836592 -0.37196439 4.18662936 -3.24609375 1.3125 C-2.24609375 0.3125 -2.24609375 0.3125 0 0 Z " fill="#C9B398" transform="translate(174.24609375,139.6875)"/>
<path d="M0 0 C4.2923264 3.11404072 6.51820475 6.30461425 8.1875 11.3125 C8.60949679 16.79845821 7.79207866 20.46259491 5.1875 25.3125 C1.66549001 29.37635768 -1.20875193 32.00063045 -6.6171875 32.6484375 C-12.85124265 32.72775118 -17.01568086 32.74955771 -21.8125 28.3125 C-26.56900217 23.04178138 -27.1667151 18.95250602 -27.09375 12.0390625 C-26.57312196 6.99186289 -23.96783389 4.37896205 -20.375 1.0625 C-13.73354864 -3.47312532 -7.21776293 -3.70977492 0 0 Z M-22.1875 9.125 C-23.65892784 14.27499742 -23.51969826 17.97387471 -21.0625 22.625 C-18.45293086 25.74198536 -16.52313452 28.02878501 -12.41015625 28.7109375 C-5.58208644 28.69776173 -5.58208644 28.69776173 0.1875 25.3125 C3.59709478 21.43261628 3.64201194 17.63908844 3.47265625 12.68359375 C2.95704397 8.39624235 1.29145527 6.28264251 -1.875 3.5 C-10.44025374 0.03745061 -16.70745529 1.90130471 -22.1875 9.125 Z " fill="#52483E" transform="translate(218.8125,222.6875)"/>
<path d="M0 0 C0.68707031 0.4434375 1.37414062 0.886875 2.08203125 1.34375 C3.01015625 1.92125 3.93828125 2.49875 4.89453125 3.09375 C9.85516083 8.19611185 13.22024417 14.7639018 13.33203125 21.84375 C13.3578125 22.8234375 13.38359375 23.803125 13.41015625 24.8125 C13.301875 25.6478125 13.19359375 26.483125 13.08203125 27.34375 C12.09203125 28.00375 11.10203125 28.66375 10.08203125 29.34375 C9.93507813 28.7146875 9.788125 28.085625 9.63671875 27.4375 C7.50996713 19.32162026 4.28215997 13.23646935 -2.79296875 8.46875 C-9.29166885 4.80629473 -16.49343109 3.29872506 -23.91796875 4.34375 C-27.36408398 5.45229056 -30.64039946 6.81102449 -33.91796875 8.34375 C-33.18359375 3.609375 -33.18359375 3.609375 -30.79296875 1.21875 C-20.93077994 -5.21311227 -10.40782647 -6.05301701 0 0 Z " fill="#C9B397" transform="translate(286.91796875,358.65625)"/>
<path d="M0 0 C6.70485108 4.57597856 11.60505096 10.15771588 14 18 C14.35159275 21.38639337 14.32420152 24.61389527 14 28 C13.01 28.33 12.02 28.66 11 29 C10.69707031 28.20335937 10.39414062 27.40671875 10.08203125 26.5859375 C6.07750342 16.4575625 2.30715533 10.82802948 -7.74609375 6.140625 C-16.08936688 3.21597224 -23.3441582 4.55207164 -31.234375 8.125 C-31.81703125 8.41375 -32.3996875 8.7025 -33 9 C-32.2578125 4.265625 -32.2578125 4.265625 -29.9375 1.875 C-20.65172741 -4.05208889 -9.98824029 -5.19528435 0 0 Z " fill="#C9B397" transform="translate(290,184)"/>
<path d="M0 0 C2.8100346 1.79363911 4.50940468 3.01880935 6 6 C6.70153846 13.13230769 6.70153846 13.13230769 3.625 16.9375 C-0.18335279 19.9297772 -2.155128 20.37998996 -7 20 C-9.77428577 18.73896101 -11.48317435 17.68910086 -13.3125 15.25 C-14.31199111 11.9789382 -14.3581657 9.40257412 -14 6 C-10.26747896 0.27680107 -6.74763808 -0.96948823 0 0 Z " fill="#D11D29" transform="translate(117,273)"/>
<path d="M0 0 C2.87029869 1.79393668 4.49131638 2.98263276 6 6 C6.04079849 10.22672392 5.69610539 13.88623137 3.4375 17.5 C0.02593906 19.59942212 -2.99326589 20.34607108 -7 20 C-12.43209877 17.13580247 -12.43209877 17.13580247 -14 14 C-14.6469176 9.2959849 -14.63833677 6.00898393 -12.0625 1.9375 C-7.95859581 -0.65884755 -4.73725096 -0.95259938 0 0 Z " fill="#FCCE3F" transform="translate(133,116)"/>
<path d="M0 0 C4.3287037 2.36111111 4.3287037 2.36111111 6 5 C6.85918842 8.51748279 6.85918842 11.48251721 6 15 C4.24865652 17.76527917 3.02677226 18.34903331 0 20 C-3.43992004 20.41516276 -5.92755785 20.2979006 -9.25 19.375 C-11.94463303 17.25778834 -12.84949961 15.20929055 -14 12 C-13.92966983 7.92085034 -13.65693085 5.80527008 -11.0625 2.625 C-7.32018634 -0.32348955 -4.7592229 -0.47592229 0 0 Z " fill="#F9BD12" transform="translate(422,268)"/>
<path d="M0 0 C2.85746217 1.26998319 4.48137263 2.2838003 6.3125 4.8125 C7.58476509 8.86061621 7.50914951 11.87987109 5.75 15.75 C3.84757178 18.19597914 2.94413861 19.10040209 0 20 C-4.23244524 20.4617213 -6.27106961 20.47538938 -9.875 18.125 C-12.80038857 15.19961143 -12.96503325 14.42659437 -13.3125 10.1875 C-13.28232024 6.86772673 -13.0060988 6.00955479 -11.125 3.0625 C-7.50882222 -0.44731961 -4.97588405 -0.33734807 0 0 Z " fill="#F9BC13" transform="translate(290,126)"/>
<path d="M0 0 C2.57866282 0.6298701 3.70080431 1.22910257 5.5078125 3.14453125 C7.69825623 7.16034476 8.18631059 9.08244195 7.3828125 13.58203125 C5.48288021 16.78816698 4.04807243 18.98106043 0.4453125 20.28125 C-3.07279983 20.90091751 -5.15659054 20.77227782 -8.4921875 19.39453125 C-11.89549991 16.49170596 -12.47997913 14.64049584 -13.0546875 10.20703125 C-12.6168329 6.57909311 -11.91476948 4.38746814 -9.375 1.6953125 C-6.34537534 -0.22344978 -3.51023028 -0.22528344 0 0 Z " fill="#FDCF40" transform="translate(282.6171875,417.41796875)"/>
<path d="M0 0 C3.76266417 1.77871397 5.51796464 3.33137031 7.9375 6.6875 C9.34591214 11.07843196 9.21096443 14.5652519 8 19 C5.78942817 22.5826509 3.8475093 24.40553669 0 26 C-4.05254261 26.63529958 -8.1662824 26.90563196 -11.9140625 25.0546875 C-15.14531948 22.52380149 -17.05585614 19.96540422 -18 16 C-18.46725516 11.71682772 -18.30749558 9.57106322 -16.25 5.75 C-11.40814501 -0.16782276 -7.45598395 -1.0483137 0 0 Z M-14.375 7.6875 C-15.33887993 11.25385575 -15.023931 14.46344399 -14 18 C-11.19507688 21.52877424 -9.23342623 22.85768159 -4.75 23.375 C-1.01962822 23.00196282 1.1265573 22.36173839 3.88671875 19.7578125 C5.80548103 16.72818784 5.80731469 13.89304278 5.58203125 10.3828125 C4.95216115 7.80414968 4.35292868 6.68200819 2.4375 4.875 C-3.84347762 1.44901221 -9.72819352 1.98460114 -14.375 7.6875 Z " fill="#6D6356" transform="translate(423,265)"/>
<path d="M0 0 C3.31601886 2.35947496 4.79668418 3.5509767 6.25 7.3125 C6.78218983 12.90049317 6.50015553 16.54560522 3.25 21.3125 C-0.6317098 24.7428482 -3.71590547 25.97493718 -8.79296875 25.703125 C-12.87376088 24.88859563 -15.65560184 22.51921109 -18.38671875 19.5078125 C-20.91375604 15.43848598 -20.47058015 10.92287852 -19.75 6.3125 C-18.13154438 3.05632142 -15.80226615 1.08416184 -12.875 -1.0625 C-8.21730178 -2.43241124 -4.28521138 -2.23773195 0 0 Z M-14.8125 4.25 C-17.41309569 8.36061899 -17.80631455 11.5719664 -16.75 16.3125 C-14.20474088 20.01469508 -12.56135075 21.0806855 -8.25 22.3125 C-4.26887435 22.3125 -2.78489564 21.8415797 0.25 19.3125 C2.39935455 16.57022005 3.18408099 14.76451608 3.6875 11.3125 C3.1443967 7.58836307 1.84513183 5.98395924 -0.75 3.3125 C-5.43909174 0.96795413 -10.50051701 1.52201076 -14.8125 4.25 Z " fill="#6D6357" transform="translate(135.75,113.6875)"/>
<path d="M0 0 C3.75194005 2.10108643 5.34865773 4.11365137 7 8 C7.72798272 12.65570345 7.42814156 16.14371687 5.3125 20.375 C1.71073658 24.46348821 -0.4642622 25.82936247 -5.9375 26.4375 C-10.2150513 26.25994127 -12.73416458 24.81013746 -16 22 C-19.16248433 18.31043495 -19.51622424 14.92422706 -19.359375 10.21875 C-18.80079406 6.77011984 -17.23593827 4.61924197 -15 2 C-10.33459182 -1.11027212 -5.46304595 -0.60536455 0 0 Z M-14.125 5.5625 C-16.26947932 9.49404543 -16.57174432 11.58940093 -16 16 C-15.12357031 18.86831534 -14.16639949 19.85807102 -11.875 21.8125 C-7.9590913 23.42994055 -4.99177354 23.44057956 -1 22 C2.49406513 18.94269301 3.80770576 17.07684775 4.625 12.5 C4.00602765 9.03375485 3.20655741 6.70895085 0.7578125 4.11328125 C-2.27181216 2.19451897 -5.10695722 2.19268531 -8.6171875 2.41796875 C-11.19585032 3.04783885 -12.31799181 3.64707132 -14.125 5.5625 Z " fill="#6E6458" transform="translate(286,415)"/>
<path d="M0 0 C3.85544798 1.99657127 5.59805092 3.39707638 8 7 C8.7566428 11.56895843 9.04593826 16.10609287 6.76171875 20.2421875 C4.29270697 23.19519911 2.70127986 24.76624005 -1 26 C-5.73039335 26.38773716 -8.05546399 26.48117872 -12.3125 24.3125 C-16.43129166 20.76842345 -18.1485803 18.04274898 -18.5625 12.625 C-18.42997799 7.9633433 -16.66485044 5.60680046 -13.5078125 2.3125 C-9.64557406 -1.04944849 -4.85521907 -0.55105247 0 0 Z M-14 7 C-15.77564811 10.55129622 -15.45594986 14.50780047 -14.3125 18.25 C-11.81666452 21.57778064 -9.13008749 22.8316891 -5.0625 23.4375 C-1.1875574 22.88393677 0.95425348 21.40826469 4 19 C5.60086627 15.79826746 5.49917089 12.47422941 5 9 C3.20636089 6.1899654 1.98119065 4.49059532 -1 3 C-6.86619119 2.51916466 -9.70514791 2.57500087 -14 7 Z " fill="#6C6058" transform="translate(118,270)"/>
<path d="M0 0 C3.73698169 1.62477465 5.84763317 3.55621307 8 7 C9.20643566 10.61930698 9.32268559 13.19231005 9 17 C6.7481855 21.33682792 4.57681459 24.16927416 0 26 C-4.3026103 26.56427676 -7.84363996 26.47762697 -11.875 24.8125 C-15.10416644 22.05821098 -16.76644202 19.94205059 -17.28515625 15.62890625 C-17.45451194 10.67341156 -17.40959478 6.87988372 -14 3 C-9.76243104 -0.61439706 -5.32556203 -0.71653016 0 0 Z M-13 7 C-14.60086627 10.20173254 -14.49917089 13.52577059 -14 17 C-12.20636089 19.8100346 -10.98119065 21.50940468 -8 23 C-3.02932218 23.3751455 0.05151502 23.15878799 4 20 C6.32826375 16.78477863 6.39711181 13.89169575 6 10 C4.73896101 7.22571423 3.68910086 5.51682565 1.25 3.6875 C-4.74320986 1.85624143 -8.57827144 2.57827144 -13 7 Z " fill="#6C6158" transform="translate(291,123)"/>
<path d="M0 0 C1.8871875 0.061875 1.8871875 0.061875 3.8125 0.125 C5.19423352 3.84168825 4.38799763 5.95626279 2.9375 9.5625 C1.53596869 13.08593012 0.45098347 16.38240007 -0.1875 20.125 C-4.50316167 19.64548204 -6.3894941 18.42264982 -9.1875 15.125 C-10.59750664 12.30498673 -10.43298451 10.25492745 -10.1875 7.125 C-7.87348878 2.27659554 -5.51609864 -0.18085569 0 0 Z " fill="#FCCD3F" transform="translate(209.1875,227.875)"/>
<path d="M0 0 C-1.78559482 6.95365789 -4.2558133 12.87314903 -8 19 C-12.69689379 15.24248497 -12.69689379 15.24248497 -13.47265625 12.0625 C-13.63990369 8.22308042 -13.23408391 6.36673146 -11.125 3.0625 C-7.48803661 -0.46749388 -4.96387034 -0.09192352 0 0 Z " fill="#D21F29" transform="translate(290,126)"/>
<path d="M0 0 C4.69689379 3.75751503 4.69689379 3.75751503 5.47265625 6.9375 C5.63296298 10.61758499 5.1818308 12.67130586 3.375 15.9375 C0.55599012 18.38558753 -1.32147666 18.74919159 -5 19 C-4.39297368 12.3227105 -2.22368606 6.29872004 0 0 Z " fill="#D2222A" transform="translate(214,229)"/>
<path d="M0 0 C-0.33944954 7.94311927 -0.33944954 7.94311927 -2.5625 11.5 C-6.09263045 13.67238797 -8.85971877 13.79966381 -13 14 C-13.66 13.67 -14.32 13.34 -15 13 C-13.50536684 9.3852622 -11.4391696 7.35564512 -8.5 4.8125 C-7.7059375 4.11769531 -6.911875 3.42289062 -6.09375 2.70703125 C-2.77345538 0 -2.77345538 0 0 0 Z " fill="#F8BC14" transform="translate(139,122)"/>
<path d="M0 0 C3.0625 0.1875 3.0625 0.1875 5.0625 2.1875 C5.43046448 5.05762296 5.43759409 6.59524618 3.875 9.0625 C2.0625 10.1875 2.0625 10.1875 -0.5 10 C-2.9375 9.1875 -2.9375 9.1875 -4.9375 7.1875 C-4.23164336 0.2701049 -4.23164336 0.2701049 0 0 Z " fill="#ED5264" transform="translate(159.9375,379.8125)"/>
<path d="M0 0 C5.56818182 0.56818182 5.56818182 0.56818182 7 2 C7.1875 4.9375 7.1875 4.9375 7 8 C5 10 5 10 2.5625 10.3125 C0 10 0 10 -1.875 8.8125 C-3 7 -3 7 -2.8125 4.4375 C-2 2 -2 2 0 0 Z " fill="#EC5164" transform="translate(291,229)"/>
<path d="M0 0 C5.56818182 0.56818182 5.56818182 0.56818182 7 2 C7.1875 4.9375 7.1875 4.9375 7 8 C5 10 5 10 2.5625 10.3125 C0 10 0 10 -1.875 8.8125 C-3 7 -3 7 -2.8125 4.4375 C-2 2 -2 2 0 0 Z " fill="#EC5164" transform="translate(145,209)"/>
<path d="M0 0 C3.0625 0.1875 3.0625 0.1875 5.0625 2.1875 C5.43046448 5.05762296 5.43759409 6.59524618 3.875 9.0625 C2.0625 10.1875 2.0625 10.1875 -0.5 10 C-2.9375 9.1875 -2.9375 9.1875 -4.9375 7.1875 C-4.23164336 0.2701049 -4.23164336 0.2701049 0 0 Z " fill="#ED5264" transform="translate(347.9375,191.8125)"/>
<path d="M0 0 C5.56818182 0.56818182 5.56818182 0.56818182 7 2 C7.1875 4.9375 7.1875 4.9375 7 8 C5 10 5 10 2.5625 10.3125 C0 10 0 10 -1.875 8.8125 C-3 7 -3 7 -2.8125 4.4375 C-2 2 -2 2 0 0 Z " fill="#EC5164" transform="translate(201,113)"/>
<path d="M0 0 C2.4375 0.8125 2.4375 0.8125 4.4375 2.8125 C4.6875 5.3125 4.6875 5.3125 4.4375 7.8125 C3.7775 8.4725 3.1175 9.1325 2.4375 9.8125 C-1.1875 9.4375 -1.1875 9.4375 -4.5625 8.8125 C-5.89091008 3.37809513 -5.89091008 3.37809513 -4.4375 0.875 C-2.5625 -0.1875 -2.5625 -0.1875 0 0 Z " fill="#ED5265" transform="translate(386.5625,329.1875)"/>
<path d="M0 0 C5.56818182 0.56818182 5.56818182 0.56818182 7 2 C7.25 4.9375 7.25 4.9375 7 8 C4 10 4 10 1.4375 9.75 C-1 9 -1 9 -3 7 C-2.67028521 3.70285207 -2.3773161 2.3773161 0 0 Z " fill="#ED5265" transform="translate(226,256)"/>
<path d="M0 0 C5.56818182 0.56818182 5.56818182 0.56818182 7 2 C7.25 4.9375 7.25 4.9375 7 8 C4 10 4 10 1.4375 9.75 C-1 9 -1 9 -3 7 C-2.67028521 3.70285207 -2.3773161 2.3773161 0 0 Z " fill="#ED5265" transform="translate(80,236)"/>
<path d="M0 0 C3.29714793 0.32971479 4.6226839 0.6226839 7 3 C6.625 6.125 6.625 6.125 6 9 C0.56559513 10.32841008 0.56559513 10.32841008 -1.9375 8.875 C-3 7 -3 7 -2.8125 4.4375 C-2 2 -2 2 0 0 Z " fill="#ED5366" transform="translate(319,356)"/>
<path d="M0 0 C2.5 0.25 2.5 0.25 4.5 2.25 C4.8125 5.25 4.8125 5.25 4.5 8.25 C1.5 10.25 1.5 10.25 -1.125 9.9375 C-3.5 9.25 -3.5 9.25 -4.5 8.25 C-4.6875 5.3125 -4.6875 5.3125 -4.5 2.25 C-2.5 0.25 -2.5 0.25 0 0 Z " fill="#ED5366" transform="translate(225.5,352.75)"/>
<path d="M0 0 C2.5 0.25 2.5 0.25 4.5 2.25 C4.8125 5.25 4.8125 5.25 4.5 8.25 C1.5 10.25 1.5 10.25 -1.125 9.9375 C-3.5 9.25 -3.5 9.25 -4.5 8.25 C-4.6875 5.3125 -4.6875 5.3125 -4.5 2.25 C-2.5 0.25 -2.5 0.25 0 0 Z " fill="#ED5366" transform="translate(413.5,164.75)"/>
<path d="M0 0 C0.99 0.103125 1.98 0.20625 3 0.3125 C5 3.3125 5 3.3125 4.625 6 C4.41875 6.763125 4.2125 7.52625 4 8.3125 C0.625 8.9375 0.625 8.9375 -3 9.3125 C-5 7.3125 -5 7.3125 -5.25 4.8125 C-4.86676958 0.9801958 -3.75087075 0.3907157 0 0 Z " fill="#ED5366" transform="translate(269,86.6875)"/>
<path d="M0 0 C2.625 0.375 2.625 0.375 5 1 C5.625 3.375 5.625 3.375 6 6 C5.34 6.66 4.68 7.32 4 8 C1.375 7.625 1.375 7.625 -1 7 C-1.625 4.625 -1.625 4.625 -2 2 C-1.34 1.34 -0.68 0.68 0 0 Z " fill="#EC5164" transform="translate(171,347)"/>
<path d="M0 0 C2.625 0.375 2.625 0.375 5 1 C5.625 3.375 5.625 3.375 6 6 C5.34 6.66 4.68 7.32 4 8 C1.375 7.625 1.375 7.625 -1 7 C-1.625 4.625 -1.625 4.625 -2 2 C-1.34 1.34 -0.68 0.68 0 0 Z " fill="#EC5164" transform="translate(332,323)"/>
<path d="M0 0 C2.625 0.375 2.625 0.375 5 1 C5.625 3.375 5.625 3.375 6 6 C5.34 6.66 4.68 7.32 4 8 C1.375 7.625 1.375 7.625 -1 7 C-1.625 4.625 -1.625 4.625 -2 2 C-1.34 1.34 -0.68 0.68 0 0 Z " fill="#EC5164" transform="translate(359,159)"/>
<path d="M0 0 C0.598125 0.226875 1.19625 0.45375 1.8125 0.6875 C2.4375 3.0625 2.4375 3.0625 2.8125 5.6875 C2.1525 6.3475 1.4925 7.0075 0.8125 7.6875 C-1.8125 7.3125 -1.8125 7.3125 -4.1875 6.6875 C-4.875 4.875 -4.875 4.875 -5.1875 2.6875 C-3.58493056 0.24147296 -2.95482043 -0.4221172 0 0 Z " fill="#ED5265" transform="translate(242.1875,223.3125)"/>
<path d="M0 0 C0.598125 0.226875 1.19625 0.45375 1.8125 0.6875 C2.4375 3.0625 2.4375 3.0625 2.8125 5.6875 C2.1525 6.3475 1.4925 7.0075 0.8125 7.6875 C-1.8125 7.3125 -1.8125 7.3125 -4.1875 6.6875 C-4.875 4.875 -4.875 4.875 -5.1875 2.6875 C-3.58493056 0.24147296 -2.95482043 -0.4221172 0 0 Z " fill="#ED5265" transform="translate(96.1875,203.3125)"/>
<path d="M0 0 C5.28 0.33 10.56 0.66 16 1 C12.09756098 4.90243902 12.09756098 4.90243902 8.1875 5.25 C4.61914323 4.97012888 2.82380222 4.15937817 0 2 C0 1.34 0 0.68 0 0 Z " fill="#F8C63F" transform="translate(105,288)"/>
<path d="M0 0 C2.5 0.125 2.5 0.125 3.5 1.125 C3.625 3.625 3.625 3.625 3.5 6.125 C2.5 7.125 2.5 7.125 0.0625 7.3125 C-2.5 7.125 -2.5 7.125 -4.5 5.125 C-3.7519084 0.18759542 -3.7519084 0.18759542 0 0 Z " fill="#ED5365" transform="translate(379.5,382.875)"/>
<path d="M0 0 C2.5 0.125 2.5 0.125 3.5 1.125 C3.625 3.625 3.625 3.625 3.5 6.125 C2.5 7.125 2.5 7.125 0.0625 7.3125 C-2.5 7.125 -2.5 7.125 -4.5 5.125 C-3.7519084 0.18759542 -3.7519084 0.18759542 0 0 Z " fill="#ED5265" transform="translate(286.5,282.875)"/>
<path d="M0 0 C2.5 0.125 2.5 0.125 3.5 1.125 C3.625 3.625 3.625 3.625 3.5 6.125 C2.5 7.125 2.5 7.125 0.0625 7.3125 C-2.5 7.125 -2.5 7.125 -4.5 5.125 C-3.7519084 0.18759542 -3.7519084 0.18759542 0 0 Z " fill="#ED5265" transform="translate(140.5,262.875)"/>
<path d="M0 0 C2.5 0.125 2.5 0.125 3.5 1.125 C3.6875 3.5625 3.6875 3.5625 3.5 6.125 C2.84 6.785 2.18 7.445 1.5 8.125 C-2.03571429 7.58928571 -2.03571429 7.58928571 -3.5 6.125 C-3.625 3.625 -3.625 3.625 -3.5 1.125 C-2.5 0.125 -2.5 0.125 0 0 Z " fill="#ED5265" transform="translate(261.5,139.875)"/>
<path d="M0 0 C2.5 0.125 2.5 0.125 3.5 1.125 C3.625 3.625 3.625 3.625 3.5 6.125 C2.5 7.125 2.5 7.125 0.0625 7.3125 C-2.5 7.125 -2.5 7.125 -4.5 5.125 C-3.7519084 0.18759542 -3.7519084 0.18759542 0 0 Z " fill="#ED5265" transform="translate(216.5,80.875)"/>
<path d="M0 0 C0.625 2.375 0.625 2.375 1 5 C0.34 5.66 -0.32 6.32 -1 7 C-3.625 6.625 -3.625 6.625 -6 6 C-6 4.02 -6 2.04 -6 0 C-3.50907189 -1.24546405 -2.58919267 -0.7767578 0 0 Z " fill="#ED5366" transform="translate(221,407)"/>
<path d="M0 0 C0.625 2.375 0.625 2.375 1 5 C0.34 5.66 -0.32 6.32 -1 7 C-3.625 6.625 -3.625 6.625 -6 6 C-6 4.02 -6 2.04 -6 0 C-3.50907189 -1.24546405 -2.58919267 -0.7767578 0 0 Z " fill="#ED5366" transform="translate(409,219)"/>
<path d="M0 0 C2.375 0.625 2.375 0.625 5 2 C6.3125 5.125 6.3125 5.125 7 8 C4.03 7.67 1.06 7.34 -2 7 C-1.125 1.125 -1.125 1.125 0 0 Z " fill="#FAC93D" transform="translate(290,127)"/>
<path d="M0 0 C2 3.75 2 3.75 2 6 C-0.31 5.67 -2.62 5.34 -5 5 C-5 4.01 -5 3.02 -5 2 C-3.35 1.34 -1.7 0.68 0 0 Z " fill="#FDCD42" transform="translate(371,297)"/>
</svg>
